# 3ds Max Wavefront OBJ Exporter v0.97b - (c)2007 guruware
# 创建的文件:05.05.2019 10:42:28

mtllib bed-s.mtl

#
# object Rectangle01
#

v  -990.4283 0.0001 -444.2571
v  -990.4283 30.0001 -444.2571
v  1009.5717 30.0001 -444.2571
v  1009.5717 0.0001 -444.2571
v  1009.5717 30.0001 455.7429
v  1009.5717 0.0001 455.7429
v  -990.4283 0.0001 455.7429
v  -990.4283 30.0001 455.7429
v  982.9412 30.0001 431.8467
v  -967.0588 30.0001 431.8467
v  982.9412 30.0001 -418.1533
v  -967.0588 30.0001 -418.1533
v  -967.0588 32.0003 -418.1533
v  982.9412 32.0003 -418.1533
v  -967.0588 32.0003 431.8467
v  982.9412 32.0003 431.8467
# 16 vertices

vn 0.0000 0.0000 -1.0000
vn 1.0000 0.0000 -0.0000
vn 0.0000 -1.0000 -0.0000
vn -1.0000 0.0000 -0.0000
vn 0.0000 1.0000 -0.0000
vn 0.0000 0.0000 1.0000
# 6 vertex normals

vt 0.0000 0.0000 0.0000
vt 0.3482 1.0000 0.0000
vt 0.0000 1.0000 0.0000
vt 0.0000 0.9375 0.0000
vt 0.3482 0.9375 0.0000
vt 0.5000 1.0000 0.0000
vt 0.5000 0.9375 0.0000
vt 1.0000 0.0000 0.0000
vt 1.0000 1.0000 0.0000
vt 0.8482 1.0000 0.0000
vt 0.8482 0.9375 0.0000
vt 1.0000 0.9375 0.0000
# 12 texture coords

o Rectangle01
g Rectangle01
usemtl 01___Default
s 1
f 1/1/1 2/1/1 3/1/1 
f 3/1/1 4/1/1 1/1/1 
s 4
f 4/1/2 3/1/2 5/1/2 
f 5/1/2 6/1/2 4/1/2 
s 16
f 1/1/3 4/1/3 6/1/3 
f 6/1/3 7/1/3 1/1/3 
s 4
f 7/1/4 8/1/4 2/1/4 
f 2/1/4 1/1/4 7/1/4 
s 16
f 9/1/5 10/1/5 8/1/5 
f 9/1/5 8/1/5 5/1/5 
f 11/1/5 9/1/5 5/1/5 
f 11/1/5 5/1/5 3/1/5 
f 12/1/5 11/1/5 3/1/5 
f 12/1/5 3/1/5 2/1/5 
f 10/1/5 12/1/5 2/1/5 
f 8/1/5 10/1/5 2/1/5 
s 2
f 6/1/6 5/1/6 8/1/6 
f 8/1/6 7/1/6 6/1/6 
usemtl 02___Default
s 8
f 13/2/1 14/3/1 11/4/1 
f 11/4/1 12/5/1 13/2/1 
s 64
f 15/6/4 13/2/4 12/5/4 
f 12/5/4 10/7/4 15/6/4 
s 128
f 16/8/5 14/9/5 13/3/5 
f 13/3/5 15/1/5 16/8/5 
s 64
f 14/9/2 16/10/2 9/11/2 
f 9/11/2 11/12/2 14/9/2 
s 32
f 16/10/6 15/6/6 10/7/6 
f 10/7/6 9/11/6 16/10/6 
# 28 faces

#
# object Rectangle03
#

v  994.6372 -410.0000 -424.0631
v  944.6372 -410.0000 -424.0631
v  944.6372 0.0000 -424.0631
v  994.6372 0.0000 -424.0631
v  944.6372 -410.0000 -374.0631
v  944.6372 0.0000 -374.0631
v  994.6372 -410.0000 -374.0631
v  994.6372 0.0000 -374.0631
# 8 vertices

vn 0.0000 0.0000 -1.0000
vn -1.0000 0.0000 -0.0000
vn 0.0000 0.0000 1.0000
vn 1.0000 0.0000 -0.0000
vn 0.0000 -1.0000 -0.0000
vn 0.0000 1.0000 -0.0000
# 6 vertex normals

o Rectangle03
g Rectangle03
usemtl 01___Default
s 1
f 17//7 18//7 19//7 
f 17//7 19//7 20//7 
s 4
f 18//8 21//8 22//8 
f 18//8 22//8 19//8 
s 2
f 21//9 23//9 24//9 
f 21//9 24//9 22//9 
s 4
f 23//10 17//10 20//10 
f 23//10 20//10 24//10 
s 16
f 21//11 17//11 23//11 
f 18//11 17//11 21//11 
f 22//12 24//12 20//12 
f 19//12 22//12 20//12 
# 12 faces

#
# object Rectangle04
#

v  994.2960 -410.0000 380.2439
v  944.2960 -410.0000 380.2439
v  944.2960 0.0000 380.2439
v  994.2960 0.0000 380.2439
v  944.2960 -410.0000 430.2439
v  944.2960 0.0000 430.2439
v  994.2960 -410.0000 430.2439
v  994.2960 0.0000 430.2439
# 8 vertices

vn 0.0000 0.0000 -1.0000
vn -1.0000 0.0000 -0.0000
vn 0.0000 0.0000 1.0000
vn 1.0000 0.0000 -0.0000
vn 0.0000 -1.0000 -0.0000
vn 0.0000 1.0000 -0.0000
# 6 vertex normals

o Rectangle04
g Rectangle04
usemtl 01___Default
s 1
f 25//13 26//13 27//13 
f 25//13 27//13 28//13 
s 4
f 26//14 29//14 30//14 
f 26//14 30//14 27//14 
s 2
f 29//15 31//15 32//15 
f 29//15 32//15 30//15 
s 4
f 31//16 25//16 28//16 
f 31//16 28//16 32//16 
s 16
f 29//17 25//17 31//17 
f 26//17 25//17 29//17 
f 30//18 32//18 28//18 
f 27//18 30//18 28//18 
# 12 faces

#
# object Rectangle05
#

v  -912.3784 -410.0000 380.2439
v  -962.3784 -410.0000 380.2439
v  -962.3784 0.0000 380.2439
v  -912.3784 0.0000 380.2439
v  -962.3784 -410.0000 430.2439
v  -962.3784 0.0000 430.2439
v  -912.3784 -410.0000 430.2439
v  -912.3784 0.0000 430.2439
# 8 vertices

vn 0.0000 0.0000 -1.0000
vn -1.0000 0.0000 -0.0000
vn 0.0000 0.0000 1.0000
vn 1.0000 0.0000 -0.0000
vn 0.0000 -1.0000 -0.0000
vn 0.0000 1.0000 -0.0000
# 6 vertex normals

o Rectangle05
g Rectangle05
usemtl 01___Default
s 1
f 33//19 34//19 35//19 
f 33//19 35//19 36//19 
s 4
f 34//20 37//20 38//20 
f 34//20 38//20 35//20 
s 2
f 37//21 39//21 40//21 
f 37//21 40//21 38//21 
s 4
f 39//22 33//22 36//22 
f 39//22 36//22 40//22 
s 16
f 37//23 33//23 39//23 
f 34//23 33//23 37//23 
f 38//24 40//24 36//24 
f 35//24 38//24 36//24 
# 12 faces

#
# object Rectangle06
#

v  -912.0371 -410.0000 -424.0631
v  -962.0371 -410.0000 -424.0631
v  -962.0371 0.0000 -424.0631
v  -912.0371 0.0000 -424.0631
v  -962.0371 -410.0000 -374.0631
v  -962.0371 0.0000 -374.0631
v  -912.0371 -410.0000 -374.0631
v  -912.0371 0.0000 -374.0631
# 8 vertices

vn 0.0000 0.0000 -1.0000
vn -1.0000 0.0000 -0.0000
vn 0.0000 0.0000 1.0000
vn 1.0000 0.0000 -0.0000
vn 0.0000 -1.0000 -0.0000
vn 0.0000 1.0000 -0.0000
# 6 vertex normals

o Rectangle06
g Rectangle06
usemtl 01___Default
s 1
f 41//25 42//25 43//25 
f 41//25 43//25 44//25 
s 4
f 42//26 45//26 46//26 
f 42//26 46//26 43//26 
s 2
f 45//27 47//27 48//27 
f 45//27 48//27 46//27 
s 4
f 47//28 41//28 44//28 
f 47//28 44//28 48//28 
s 16
f 45//29 41//29 47//29 
f 42//29 41//29 45//29 
f 46//30 48//30 44//30 
f 43//30 46//30 44//30 
# 12 faces

#
# object Rectangle07
#

v  943.5513 -2.4926 404.1860
v  943.5514 -2.4926 -400.8140
v  443.5514 -2.4926 -400.8141
v  443.5513 -2.4926 404.1859
v  943.5514 -310.4926 -400.8140
v  443.5514 -310.4926 -400.8141
v  943.5513 -310.4926 404.1860
v  443.5513 -310.4926 404.1859
v  943.5513 -280.4926 374.1863
v  943.5514 -280.4926 -370.8143
v  443.5514 -280.4926 -370.8144
v  443.5513 -280.4926 374.1862
v  943.5514 -32.4926 -370.8143
v  443.5514 -32.4926 -370.8144
v  943.5513 -32.4926 374.1863
v  443.5513 -32.4926 374.1862
# 16 vertices

vn -0.0000 1.0000 0.0000
vn 0.0000 0.0000 -1.0000
vn 0.0000 -1.0000 -0.0000
vn -0.0000 -0.0000 1.0000
vn 1.0000 0.0000 0.0000
vn -1.0000 -0.0000 -0.0000
# 6 vertex normals

o Rectangle07
g Rectangle07
usemtl 01___Default
s 1
f 49//31 50//31 51//31 
f 49//31 51//31 52//31 
s 4
f 50//32 53//32 54//32 
f 50//32 54//32 51//32 
s 2
f 53//33 55//33 56//33 
f 53//33 56//33 54//33 
s 4
f 55//34 49//34 52//34 
f 55//34 52//34 56//34 
s 1
f 57//31 58//31 59//31 
f 57//31 59//31 60//31 
s 4
f 58//34 61//34 62//34 
f 58//34 62//34 59//34 
s 2
f 61//33 63//33 64//33 
f 61//33 64//33 62//33 
s 4
f 63//32 57//32 60//32 
f 63//32 60//32 64//32 
s 16
f 63//35 49//35 57//35 
f 55//35 57//35 49//35 
f 53//35 57//35 55//35 
f 53//35 58//35 57//35 
f 50//35 58//35 53//35 
f 50//35 61//35 58//35 
f 49//35 61//35 50//35 
f 49//35 63//35 61//35 
f 64//36 60//36 52//36 
f 56//36 52//36 60//36 
f 54//36 56//36 60//36 
f 54//36 60//36 59//36 
f 51//36 54//36 59//36 
f 51//36 59//36 62//36 
f 52//36 51//36 62//36 
f 52//36 62//36 64//36 
# 32 faces

#
# object Rectangle08
#

v  -921.3113 -215.8020 -390.6775
v  -951.3113 -215.8020 -390.6775
v  -951.3113 -215.8020 409.3225
v  -921.3113 -215.8020 409.3225
v  -951.3113 -245.8020 -390.6775
v  -951.3113 -245.8020 409.3225
v  -921.3113 -245.8020 -390.6775
v  -921.3113 -245.8020 409.3225
# 8 vertices

vn 0.0000 1.0000 0.0000
vn -1.0000 0.0000 -0.0000
vn 0.0000 -1.0000 -0.0000
vn 1.0000 0.0000 -0.0000
vn 0.0000 0.0000 -1.0000
vn 0.0000 -0.0000 1.0000
# 6 vertex normals

o Rectangle08
g Rectangle08
usemtl 01___Default
s 1
f 65//37 66//37 67//37 
f 65//37 67//37 68//37 
s 4
f 66//38 69//38 70//38 
f 66//38 70//38 67//38 
s 2
f 69//39 71//39 72//39 
f 69//39 72//39 70//39 
s 4
f 71//40 65//40 68//40 
f 71//40 68//40 72//40 
s 16
f 69//41 65//41 71//41 
f 66//41 65//41 69//41 
f 70//42 72//42 68//42 
f 67//42 70//42 68//42 
# 12 faces

