# 3ds Max Wavefront OBJ Exporter v0.97b - (c)2007 guruware
# 创建的文件:11.07.2019 09:49:57

mtllib cardpassword.mtl

#
# object Rectangle002
#

v  39.9814 58.8988 13.7421
v  39.8228 60.2736 13.7421
v  39.8228 60.2736 15.7421
v  39.9814 58.8988 15.7421
v  39.3711 61.5361 13.7421
v  39.3711 61.5361 15.7421
v  38.6624 62.6502 13.7421
v  38.6624 62.6502 15.7421
v  37.7329 63.5797 13.7421
v  37.7329 63.5797 15.7421
v  36.6188 64.2884 13.7421
v  36.6188 64.2884 15.7421
v  35.3562 64.7402 13.7421
v  35.3562 64.7402 15.7421
v  33.9814 64.8988 13.7421
v  33.9814 64.8988 15.7421
v  -34.0186 64.8988 13.7421
v  -34.0186 64.8988 15.7421
v  -35.3934 64.7402 13.7421
v  -35.3934 64.7402 15.7421
v  -36.6559 64.2884 13.7421
v  -36.6559 64.2884 15.7421
v  -37.7700 63.5797 13.7421
v  -37.7700 63.5797 15.7421
v  -38.6995 62.6502 13.7421
v  -38.6995 62.6502 15.7421
v  -39.4082 61.5361 13.7421
v  -39.4082 61.5361 15.7421
v  -39.8600 60.2736 13.7421
v  -39.8600 60.2736 15.7421
v  -40.0186 58.8988 13.7421
v  -40.0186 58.8988 15.7421
v  -40.0186 -59.1012 13.7421
v  -40.0186 -59.1012 15.7421
v  -39.8600 -60.4760 13.7421
v  -39.8600 -60.4760 15.7421
v  -39.4082 -61.7385 13.7421
v  -39.4082 -61.7385 15.7421
v  -38.6995 -62.8526 13.7421
v  -38.6995 -62.8526 15.7421
v  -37.7700 -63.7821 13.7421
v  -37.7700 -63.7821 15.7421
v  -36.6559 -64.4908 13.7421
v  -36.6559 -64.4908 15.7421
v  -35.3934 -64.9426 13.7421
v  -35.3934 -64.9426 15.7421
v  -34.0186 -65.1012 13.7421
v  -34.0186 -65.1012 15.7421
v  33.9814 -65.1012 13.7421
v  33.9814 -65.1012 15.7421
v  35.3562 -64.9426 13.7421
v  35.3562 -64.9426 15.7421
v  36.6188 -64.4908 13.7421
v  36.6188 -64.4908 15.7421
v  37.7329 -63.7821 13.7421
v  37.7329 -63.7821 15.7421
v  38.6624 -62.8526 13.7421
v  38.6624 -62.8526 15.7421
v  39.3711 -61.7385 13.7421
v  39.3711 -61.7385 15.7421
v  39.8228 -60.4760 13.7421
v  39.8228 -60.4760 15.7421
v  39.9814 -59.1012 13.7421
v  39.9814 -59.1012 15.7421
# 64 vertices

vn 0.9934 0.1146 0.0000
vn 0.9738 0.2272 0.0000
vn 0.8982 0.4395 0.0000
vn 0.7801 0.6257 0.0000
vn 0.6257 0.7801 0.0000
vn 0.4395 0.8982 0.0000
vn 0.2272 0.9738 0.0000
vn 0.1146 0.9934 0.0000
vn 0.0000 1.0000 0.0000
vn -0.1146 0.9934 0.0000
vn -0.2272 0.9738 0.0000
vn -0.4395 0.8982 0.0000
vn -0.6257 0.7801 0.0000
vn -0.7801 0.6257 0.0000
vn -0.8982 0.4395 0.0000
vn -0.9738 0.2272 0.0000
vn -0.9934 0.1146 0.0000
vn -1.0000 0.0000 -0.0000
vn -0.9934 -0.1146 -0.0000
vn -0.9738 -0.2272 -0.0000
vn -0.8982 -0.4395 -0.0000
vn -0.7801 -0.6257 -0.0000
vn -0.6257 -0.7801 -0.0000
vn -0.4395 -0.8982 -0.0000
vn -0.2272 -0.9738 -0.0000
vn -0.1146 -0.9934 -0.0000
vn 0.0000 -1.0000 -0.0000
vn 0.1146 -0.9934 -0.0000
vn 0.2272 -0.9738 -0.0000
vn 0.4395 -0.8982 -0.0000
vn 0.6257 -0.7801 -0.0000
vn 0.7801 -0.6257 -0.0000
vn 0.8982 -0.4395 -0.0000
vn 0.9738 -0.2272 -0.0000
vn 0.9934 -0.1146 -0.0000
vn 1.0000 0.0000 -0.0000
vn 0.0000 0.0000 -1.0000
vn 0.0000 -0.0000 1.0000
# 38 vertex normals

vt 1.0000 0.9538 0.0000
vt 0.9980 0.9644 0.0000
vt 0.9980 0.9644 10.0000
vt 1.0000 0.9538 10.0000
vt 0.9924 0.9741 0.0000
vt 0.9924 0.9741 10.0000
vt 0.9835 0.9827 0.0000
vt 0.9835 0.9827 10.0000
vt 0.9719 0.9899 0.0000
vt 0.9719 0.9899 10.0000
vt 0.9580 0.9953 0.0000
vt 0.9580 0.9953 10.0000
vt 0.9422 0.9988 0.0000
vt 0.9422 0.9988 10.0000
vt 0.9250 1.0000 0.0000
vt 0.9250 1.0000 10.0000
vt 0.0750 1.0000 0.0000
vt 0.0750 1.0000 10.0000
vt 0.0578 0.9988 0.0000
vt 0.0578 0.9988 10.0000
vt 0.0420 0.9953 0.0000
vt 0.0420 0.9953 10.0000
vt 0.0281 0.9899 0.0000
vt 0.0281 0.9899 10.0000
vt 0.0165 0.9827 0.0000
vt 0.0165 0.9827 10.0000
vt 0.0076 0.9741 0.0000
vt 0.0076 0.9741 10.0000
vt 0.0020 0.9644 0.0000
vt 0.0020 0.9644 10.0000
vt 0.0000 0.9538 0.0000
vt 0.0000 0.9538 10.0000
vt 0.0000 0.0462 0.0000
vt 0.0000 0.0462 10.0000
vt 0.0020 0.0356 0.0000
vt 0.0020 0.0356 10.0000
vt 0.0076 0.0259 0.0000
vt 0.0076 0.0259 10.0000
vt 0.0165 0.0173 0.0000
vt 0.0165 0.0173 10.0000
vt 0.0281 0.0101 0.0000
vt 0.0281 0.0101 10.0000
vt 0.0420 0.0047 0.0000
vt 0.0420 0.0047 10.0000
vt 0.0578 0.0012 0.0000
vt 0.0578 0.0012 10.0000
vt 0.0750 0.0000 0.0000
vt 0.0750 0.0000 10.0000
vt 0.9250 0.0000 0.0000
vt 0.9250 0.0000 10.0000
vt 0.9422 0.0012 0.0000
vt 0.9422 0.0012 10.0000
vt 0.9580 0.0047 0.0000
vt 0.9580 0.0047 10.0000
vt 0.9719 0.0101 0.0000
vt 0.9719 0.0101 10.0000
vt 0.9835 0.0173 0.0000
vt 0.9835 0.0173 10.0000
vt 0.9924 0.0259 0.0000
vt 0.9924 0.0259 10.0000
vt 0.9980 0.0356 0.0000
vt 0.9980 0.0356 10.0000
vt 1.0000 0.0462 0.0000
vt 1.0000 0.0462 10.0000
# 64 texture coords

o Rectangle002
g Rectangle002
usemtl 02___Default
s 1
f 1/1/1 2/2/2 3/3/2 
f 1/1/1 3/3/2 4/4/1 
s 3
f 2/2/2 5/5/3 6/6/3 
f 2/2/2 6/6/3 3/3/2 
s 2
f 5/5/3 7/7/4 8/8/4 
f 5/5/3 8/8/4 6/6/3 
f 7/7/4 9/9/5 10/10/5 
f 7/7/4 10/10/5 8/8/4 
f 9/9/5 11/11/6 12/12/6 
f 9/9/5 12/12/6 10/10/5 
f 11/11/6 13/13/7 14/14/7 
f 11/11/6 14/14/7 12/12/6 
f 13/13/7 15/15/8 16/16/8 
f 13/13/7 16/16/8 14/14/7 
s 4
f 15/15/9 17/17/9 18/18/9 
f 15/15/9 18/18/9 16/16/9 
s 2
f 17/17/10 19/19/11 20/20/11 
f 17/17/10 20/20/11 18/18/10 
f 19/19/11 21/21/12 22/22/12 
f 19/19/11 22/22/12 20/20/11 
f 21/21/12 23/23/13 24/24/13 
f 21/21/12 24/24/13 22/22/12 
f 23/23/13 25/25/14 26/26/14 
f 23/23/13 26/26/14 24/24/13 
f 25/25/14 27/27/15 28/28/15 
f 25/25/14 28/28/15 26/26/14 
f 27/27/15 29/29/16 30/30/16 
f 27/27/15 30/30/16 28/28/15 
f 29/29/16 31/31/17 32/32/17 
f 29/29/16 32/32/17 30/30/16 
s 4
f 31/31/18 33/33/18 34/34/18 
f 31/31/18 34/34/18 32/32/18 
s 2
f 33/33/19 35/35/20 36/36/20 
f 33/33/19 36/36/20 34/34/19 
f 35/35/20 37/37/21 38/38/21 
f 35/35/20 38/38/21 36/36/20 
f 37/37/21 39/39/22 40/40/22 
f 37/37/21 40/40/22 38/38/21 
f 39/39/22 41/41/23 42/42/23 
f 39/39/22 42/42/23 40/40/22 
f 41/41/23 43/43/24 44/44/24 
f 41/41/23 44/44/24 42/42/23 
f 43/43/24 45/45/25 46/46/25 
f 43/43/24 46/46/25 44/44/24 
f 45/45/25 47/47/26 48/48/26 
f 45/45/25 48/48/26 46/46/25 
s 4
f 47/47/27 49/49/27 50/50/27 
f 47/47/27 50/50/27 48/48/27 
s 2
f 49/49/28 51/51/29 52/52/29 
f 49/49/28 52/52/29 50/50/28 
f 51/51/29 53/53/30 54/54/30 
f 51/51/29 54/54/30 52/52/29 
f 53/53/30 55/55/31 56/56/31 
f 53/53/30 56/56/31 54/54/30 
f 55/55/31 57/57/32 58/58/32 
f 55/55/31 58/58/32 56/56/31 
f 57/57/32 59/59/33 60/60/33 
f 57/57/32 60/60/33 58/58/32 
f 59/59/33 61/61/34 62/62/34 
f 59/59/33 62/62/34 60/60/33 
f 61/61/34 63/63/35 64/64/35 
f 61/61/34 64/64/35 62/62/34 
s 4
f 63/63/36 1/1/36 4/4/36 
f 63/63/36 4/4/36 64/64/36 
s 16
f 43/43/37 47/47/37 45/45/37 
f 41/41/37 47/47/37 43/43/37 
f 39/39/37 47/47/37 41/41/37 
f 37/37/37 47/47/37 39/39/37 
f 35/35/37 47/47/37 37/37/37 
f 33/33/37 47/47/37 35/35/37 
f 31/31/37 47/47/37 33/33/37 
f 31/31/37 49/49/37 47/47/37 
f 31/31/37 51/51/37 49/49/37 
f 31/31/37 53/53/37 51/51/37 
f 31/31/37 55/55/37 53/53/37 
f 31/31/37 57/57/37 55/55/37 
f 31/31/37 59/59/37 57/57/37 
f 31/31/37 61/61/37 59/59/37 
f 31/31/37 63/63/37 61/61/37 
f 31/31/37 1/1/37 63/63/37 
f 29/29/37 1/1/37 31/31/37 
f 27/27/37 1/1/37 29/29/37 
f 25/25/37 1/1/37 27/27/37 
f 23/23/37 1/1/37 25/25/37 
f 21/21/37 1/1/37 23/23/37 
f 19/19/37 1/1/37 21/21/37 
f 17/17/37 1/1/37 19/19/37 
f 15/15/37 1/1/37 17/17/37 
f 15/15/37 2/2/37 1/1/37 
f 13/13/37 2/2/37 15/15/37 
f 11/11/37 2/2/37 13/13/37 
f 11/11/37 5/5/37 2/2/37 
f 11/11/37 7/7/37 5/5/37 
f 9/9/37 7/7/37 11/11/37 
f 44/44/38 46/46/38 48/48/38 
f 42/42/38 44/44/38 48/48/38 
f 40/40/38 42/42/38 48/48/38 
f 38/38/38 40/40/38 48/48/38 
f 36/36/38 38/38/38 48/48/38 
f 34/34/38 36/36/38 48/48/38 
f 32/32/38 34/34/38 48/48/38 
f 32/32/38 48/48/38 50/50/38 
f 32/32/38 50/50/38 52/52/38 
f 32/32/38 52/52/38 54/54/38 
f 32/32/38 54/54/38 56/56/38 
f 32/32/38 56/56/38 58/58/38 
f 32/32/38 58/58/38 60/60/38 
f 32/32/38 60/60/38 62/62/38 
f 32/32/38 62/62/38 64/64/38 
f 32/32/38 64/64/38 4/4/38 
f 30/30/38 32/32/38 4/4/38 
f 28/28/38 30/30/38 4/4/38 
f 26/26/38 28/28/38 4/4/38 
f 24/24/38 26/26/38 4/4/38 
f 22/22/38 24/24/38 4/4/38 
f 20/20/38 22/22/38 4/4/38 
f 18/18/38 20/20/38 4/4/38 
f 16/16/38 18/18/38 4/4/38 
f 16/16/38 4/4/38 3/3/38 
f 14/14/38 16/16/38 3/3/38 
f 12/12/38 14/14/38 3/3/38 
f 12/12/38 3/3/38 6/6/38 
f 12/12/38 6/6/38 8/8/38 
f 10/10/38 12/12/38 8/8/38 
# 124 faces

#
# object Rectangle001
#

v  39.9814 58.8988 -13.3498
v  39.8228 60.2736 -13.3498
v  39.8228 60.2736 13.6502
v  39.9814 58.8988 13.6502
v  39.3711 61.5361 -13.3498
v  39.3711 61.5361 13.6502
v  38.6624 62.6502 -13.3498
v  38.6624 62.6502 13.6502
v  37.7329 63.5797 -13.3498
v  37.7329 63.5797 13.6502
v  36.6188 64.2884 -13.3498
v  36.6188 64.2884 13.6502
v  35.3562 64.7402 -13.3498
v  35.3562 64.7402 13.6502
v  33.9814 64.8988 -13.3498
v  33.9814 64.8988 13.6502
v  -34.0186 64.8988 -13.3498
v  -34.0186 64.8988 13.6502
v  -35.3934 64.7402 -13.3498
v  -35.3934 64.7402 13.6502
v  -36.6559 64.2884 -13.3498
v  -36.6559 64.2884 13.6502
v  -37.7700 63.5797 -13.3498
v  -37.7700 63.5797 13.6502
v  -38.6995 62.6502 -13.3498
v  -38.6995 62.6502 13.6502
v  -39.4082 61.5361 -13.3498
v  -39.4082 61.5361 13.6502
v  -39.8600 60.2736 -13.3498
v  -39.8600 60.2736 13.6502
v  -40.0186 58.8988 -13.3498
v  -40.0186 58.8988 13.6502
v  -40.0186 -59.1012 -13.3498
v  -40.0186 -59.1012 13.6502
v  -39.8600 -60.4760 -13.3498
v  -39.8600 -60.4760 13.6502
v  -39.4082 -61.7385 -13.3498
v  -39.4082 -61.7385 13.6502
v  -38.6995 -62.8526 -13.3498
v  -38.6995 -62.8526 13.6502
v  -37.7700 -63.7821 -13.3498
v  -37.7700 -63.7821 13.6502
v  -36.6559 -64.4908 -13.3498
v  -36.6559 -64.4908 13.6502
v  -35.3934 -64.9426 -13.3498
v  -35.3934 -64.9426 13.6502
v  -34.0186 -65.1012 -13.3498
v  -34.0186 -65.1012 13.6502
v  33.9814 -65.1012 -13.3498
v  33.9814 -65.1012 13.6502
v  35.3562 -64.9426 -13.3498
v  35.3562 -64.9426 13.6502
v  36.6188 -64.4908 -13.3498
v  36.6188 -64.4908 13.6502
v  37.7329 -63.7821 -13.3498
v  37.7329 -63.7821 13.6502
v  38.6624 -62.8526 -13.3498
v  38.6624 -62.8526 13.6502
v  39.3711 -61.7385 -13.3498
v  39.3711 -61.7385 13.6502
v  39.8228 -60.4760 -13.3498
v  39.8228 -60.4760 13.6502
v  39.9814 -59.1012 -13.3498
v  39.9814 -59.1012 13.6502
# 64 vertices

vn 0.9934 0.1146 0.0000
vn 0.9738 0.2272 0.0000
vn 0.8982 0.4395 0.0000
vn 0.7801 0.6257 0.0000
vn 0.6257 0.7801 0.0000
vn 0.4395 0.8982 0.0000
vn 0.2272 0.9738 0.0000
vn 0.1146 0.9934 0.0000
vn 0.0000 1.0000 0.0000
vn -0.1146 0.9934 0.0000
vn -0.2272 0.9738 0.0000
vn -0.4395 0.8982 0.0000
vn -0.6257 0.7801 0.0000
vn -0.7801 0.6257 0.0000
vn -0.8982 0.4395 0.0000
vn -0.9738 0.2272 0.0000
vn -0.9934 0.1146 0.0000
vn -1.0000 0.0000 -0.0000
vn -0.9934 -0.1146 -0.0000
vn -0.9738 -0.2272 -0.0000
vn -0.8982 -0.4395 -0.0000
vn -0.7801 -0.6257 -0.0000
vn -0.6257 -0.7801 -0.0000
vn -0.4395 -0.8982 -0.0000
vn -0.2272 -0.9738 -0.0000
vn -0.1146 -0.9934 -0.0000
vn 0.0000 -1.0000 -0.0000
vn 0.1146 -0.9934 -0.0000
vn 0.2272 -0.9738 -0.0000
vn 0.4395 -0.8982 -0.0000
vn 0.6257 -0.7801 -0.0000
vn 0.7801 -0.6257 -0.0000
vn 0.8982 -0.4395 -0.0000
vn 0.9738 -0.2272 -0.0000
vn 0.9934 -0.1146 -0.0000
vn 1.0000 0.0000 -0.0000
vn 0.0000 0.0000 -1.0000
vn 0.0000 -0.0000 1.0000
# 38 vertex normals

o Rectangle001
g Rectangle001
usemtl wire_188188188
s 1
f 65//39 66//40 67//40 
f 65//39 67//40 68//39 
s 3
f 66//40 69//41 70//41 
f 66//40 70//41 67//40 
s 2
f 69//41 71//42 72//42 
f 69//41 72//42 70//41 
f 71//42 73//43 74//43 
f 71//42 74//43 72//42 
f 73//43 75//44 76//44 
f 73//43 76//44 74//43 
f 75//44 77//45 78//45 
f 75//44 78//45 76//44 
f 77//45 79//46 80//46 
f 77//45 80//46 78//45 
s 4
f 79//47 81//47 82//47 
f 79//47 82//47 80//47 
s 2
f 81//48 83//49 84//49 
f 81//48 84//49 82//48 
f 83//49 85//50 86//50 
f 83//49 86//50 84//49 
f 85//50 87//51 88//51 
f 85//50 88//51 86//50 
f 87//51 89//52 90//52 
f 87//51 90//52 88//51 
f 89//52 91//53 92//53 
f 89//52 92//53 90//52 
f 91//53 93//54 94//54 
f 91//53 94//54 92//53 
f 93//54 95//55 96//55 
f 93//54 96//55 94//54 
s 4
f 95//56 97//56 98//56 
f 95//56 98//56 96//56 
s 2
f 97//57 99//58 100//58 
f 97//57 100//58 98//57 
f 99//58 101//59 102//59 
f 99//58 102//59 100//58 
f 101//59 103//60 104//60 
f 101//59 104//60 102//59 
f 103//60 105//61 106//61 
f 103//60 106//61 104//60 
f 105//61 107//62 108//62 
f 105//61 108//62 106//61 
f 107//62 109//63 110//63 
f 107//62 110//63 108//62 
f 109//63 111//64 112//64 
f 109//63 112//64 110//63 
s 4
f 111//65 113//65 114//65 
f 111//65 114//65 112//65 
s 2
f 113//66 115//67 116//67 
f 113//66 116//67 114//66 
f 115//67 117//68 118//68 
f 115//67 118//68 116//67 
f 117//68 119//69 120//69 
f 117//68 120//69 118//68 
f 119//69 121//70 122//70 
f 119//69 122//70 120//69 
f 121//70 123//71 124//71 
f 121//70 124//71 122//70 
f 123//71 125//72 126//72 
f 123//71 126//72 124//71 
f 125//72 127//73 128//73 
f 125//72 128//73 126//72 
s 4
f 127//74 65//74 68//74 
f 127//74 68//74 128//74 
s 16
f 107//75 111//75 109//75 
f 105//75 111//75 107//75 
f 103//75 111//75 105//75 
f 101//75 111//75 103//75 
f 99//75 111//75 101//75 
f 97//75 111//75 99//75 
f 95//75 111//75 97//75 
f 95//75 113//75 111//75 
f 95//75 115//75 113//75 
f 95//75 117//75 115//75 
f 95//75 119//75 117//75 
f 95//75 121//75 119//75 
f 95//75 123//75 121//75 
f 95//75 125//75 123//75 
f 95//75 127//75 125//75 
f 95//75 65//75 127//75 
f 93//75 65//75 95//75 
f 91//75 65//75 93//75 
f 89//75 65//75 91//75 
f 87//75 65//75 89//75 
f 85//75 65//75 87//75 
f 83//75 65//75 85//75 
f 81//75 65//75 83//75 
f 79//75 65//75 81//75 
f 79//75 66//75 65//75 
f 77//75 66//75 79//75 
f 75//75 66//75 77//75 
f 75//75 69//75 66//75 
f 75//75 71//75 69//75 
f 73//75 71//75 75//75 
f 108//76 110//76 112//76 
f 106//76 108//76 112//76 
f 104//76 106//76 112//76 
f 102//76 104//76 112//76 
f 100//76 102//76 112//76 
f 98//76 100//76 112//76 
f 96//76 98//76 112//76 
f 96//76 112//76 114//76 
f 96//76 114//76 116//76 
f 96//76 116//76 118//76 
f 96//76 118//76 120//76 
f 96//76 120//76 122//76 
f 96//76 122//76 124//76 
f 96//76 124//76 126//76 
f 96//76 126//76 128//76 
f 96//76 128//76 68//76 
f 94//76 96//76 68//76 
f 92//76 94//76 68//76 
f 90//76 92//76 68//76 
f 88//76 90//76 68//76 
f 86//76 88//76 68//76 
f 84//76 86//76 68//76 
f 82//76 84//76 68//76 
f 80//76 82//76 68//76 
f 80//76 68//76 67//76 
f 78//76 80//76 67//76 
f 76//76 78//76 67//76 
f 76//76 67//76 70//76 
f 76//76 70//76 72//76 
f 74//76 76//76 72//76 
# 124 faces

