# 3ds Max Wavefront OBJ Exporter v0.97b - (c)2007 guruware
# 创建的文件:11.07.2019 11:26:52

mtllib fingercard.mtl

#
# object Rectangle002
#

v  64.7715 35.7695 -22.1820
v  64.7186 36.2278 -22.1820
v  64.7186 36.2278 17.8180
v  64.7715 35.7695 17.8180
v  64.5680 36.6486 -22.1820
v  64.5680 36.6486 17.8180
v  64.3318 37.0200 -22.1820
v  64.3318 37.0200 17.8180
v  64.0220 37.3298 -22.1820
v  64.0220 37.3298 17.8180
v  63.6506 37.5661 -22.1820
v  63.6506 37.5661 17.8180
v  63.2297 37.7167 -22.1820
v  63.2297 37.7166 17.8180
v  62.7715 37.7695 -22.1820
v  62.7715 37.7695 17.8180
v  -43.2285 37.7695 -22.1820
v  -43.2285 37.7695 17.8180
v  -43.6868 37.7167 -22.1820
v  -43.6868 37.7166 17.8180
v  -44.1076 37.5661 -22.1820
v  -44.1076 37.5661 17.8180
v  -44.4790 37.3298 -22.1820
v  -44.4790 37.3298 17.8180
v  -44.7888 37.0200 -22.1820
v  -44.7888 37.0200 17.8180
v  -45.0251 36.6486 -22.1820
v  -45.0251 36.6486 17.8180
v  -45.1757 36.2278 -22.1820
v  -45.1757 36.2278 17.8180
v  -45.2285 35.7695 -22.1820
v  -45.2285 35.7695 17.8180
v  -45.2285 -35.2305 -22.1820
v  -45.2285 -35.2305 17.8180
v  -45.1757 -35.6887 -22.1820
v  -45.1757 -35.6887 17.8180
v  -45.0251 -36.1096 -22.1820
v  -45.0251 -36.1096 17.8180
v  -44.7888 -36.4810 -22.1820
v  -44.7888 -36.4810 17.8180
v  -44.4790 -36.7908 -22.1820
v  -44.4790 -36.7908 17.8180
v  -44.1076 -37.0270 -22.1820
v  -44.1076 -37.0270 17.8180
v  -43.6868 -37.1776 -22.1820
v  -43.6868 -37.1776 17.8180
v  -43.2285 -37.2305 -22.1820
v  -43.2285 -37.2305 17.8180
v  62.7715 -37.2305 -22.1820
v  62.7715 -37.2305 17.8180
v  63.2297 -37.1776 -22.1820
v  63.2297 -37.1776 17.8180
v  63.6506 -37.0270 -22.1820
v  63.6506 -37.0270 17.8180
v  64.0220 -36.7908 -22.1820
v  64.0220 -36.7908 17.8180
v  64.3318 -36.4809 -22.1820
v  64.3318 -36.4810 17.8180
v  64.5680 -36.1096 -22.1820
v  64.5680 -36.1096 17.8180
v  64.7186 -35.6887 -22.1820
v  64.7186 -35.6887 17.8180
v  64.7715 -35.2305 -22.1820
v  64.7715 -35.2305 17.8180
# 64 vertices

vn 0.9934 0.1146 0.0000
vn 0.9738 0.2272 0.0000
vn 0.8982 0.4395 0.0000
vn 0.7801 0.6257 0.0000
vn 0.6257 0.7801 0.0000
vn 0.4395 0.8982 0.0000
vn 0.2272 0.9738 0.0000
vn 0.1146 0.9934 0.0000
vn 0.0000 1.0000 0.0000
vn -0.1146 0.9934 0.0000
vn -0.2272 0.9738 0.0000
vn -0.4395 0.8982 0.0000
vn -0.6257 0.7801 0.0000
vn -0.7801 0.6257 0.0000
vn -0.8982 0.4395 0.0000
vn -0.9738 0.2272 0.0000
vn -0.9934 0.1146 0.0000
vn -1.0000 0.0000 -0.0000
vn -0.9934 -0.1146 -0.0000
vn -0.9738 -0.2272 -0.0000
vn -0.8982 -0.4395 -0.0000
vn -0.7801 -0.6257 -0.0000
vn -0.6257 -0.7801 -0.0000
vn -0.4395 -0.8982 -0.0000
vn -0.2272 -0.9738 -0.0000
vn -0.1146 -0.9934 -0.0000
vn 0.0000 -1.0000 -0.0000
vn 0.1146 -0.9934 -0.0000
vn 0.2272 -0.9738 -0.0000
vn 0.4395 -0.8982 -0.0000
vn 0.6257 -0.7801 -0.0000
vn 0.7801 -0.6257 -0.0000
vn 0.8982 -0.4395 -0.0000
vn 0.9738 -0.2272 -0.0000
vn 0.9934 -0.1146 -0.0000
vn 1.0000 0.0000 -0.0000
vn 0.0000 0.0000 -1.0000
vn 0.0000 -0.0000 1.0000
# 38 vertex normals

o Rectangle002
g Rectangle002
usemtl wire_003003003
s 1
f 1//1 2//2 3//2 
f 1//1 3//2 4//1 
s 3
f 2//2 5//3 6//3 
f 2//2 6//3 3//2 
s 2
f 5//3 7//4 8//4 
f 5//3 8//4 6//3 
f 7//4 9//5 10//5 
f 7//4 10//5 8//4 
f 9//5 11//6 12//6 
f 9//5 12//6 10//5 
f 11//6 13//7 14//7 
f 11//6 14//7 12//6 
f 13//7 15//8 16//8 
f 13//7 16//8 14//7 
s 4
f 15//9 17//9 18//9 
f 15//9 18//9 16//9 
s 2
f 17//10 19//11 20//11 
f 17//10 20//11 18//10 
f 19//11 21//12 22//12 
f 19//11 22//12 20//11 
f 21//12 23//13 24//13 
f 21//12 24//13 22//12 
f 23//13 25//14 26//14 
f 23//13 26//14 24//13 
f 25//14 27//15 28//15 
f 25//14 28//15 26//14 
f 27//15 29//16 30//16 
f 27//15 30//16 28//15 
f 29//16 31//17 32//17 
f 29//16 32//17 30//16 
s 4
f 31//18 33//18 34//18 
f 31//18 34//18 32//18 
s 2
f 33//19 35//20 36//20 
f 33//19 36//20 34//19 
f 35//20 37//21 38//21 
f 35//20 38//21 36//20 
f 37//21 39//22 40//22 
f 37//21 40//22 38//21 
f 39//22 41//23 42//23 
f 39//22 42//23 40//22 
f 41//23 43//24 44//24 
f 41//23 44//24 42//23 
f 43//24 45//25 46//25 
f 43//24 46//25 44//24 
f 45//25 47//26 48//26 
f 45//25 48//26 46//25 
s 4
f 47//27 49//27 50//27 
f 47//27 50//27 48//27 
s 2
f 49//28 51//29 52//29 
f 49//28 52//29 50//28 
f 51//29 53//30 54//30 
f 51//29 54//30 52//29 
f 53//30 55//31 56//31 
f 53//30 56//31 54//30 
f 55//31 57//32 58//32 
f 55//31 58//32 56//31 
f 57//32 59//33 60//33 
f 57//32 60//33 58//32 
f 59//33 61//34 62//34 
f 59//33 62//34 60//33 
f 61//34 63//35 64//35 
f 61//34 64//35 62//34 
s 4
f 63//36 1//36 4//36 
f 63//36 4//36 64//36 
s 16
f 59//37 63//37 61//37 
f 57//37 63//37 59//37 
f 55//37 63//37 57//37 
f 53//37 63//37 55//37 
f 51//37 63//37 53//37 
f 49//37 63//37 51//37 
f 47//37 63//37 49//37 
f 47//37 1//37 63//37 
f 47//37 2//37 1//37 
f 47//37 5//37 2//37 
f 47//37 7//37 5//37 
f 47//37 9//37 7//37 
f 47//37 11//37 9//37 
f 47//37 13//37 11//37 
f 47//37 15//37 13//37 
f 47//37 17//37 15//37 
f 45//37 17//37 47//37 
f 43//37 17//37 45//37 
f 41//37 17//37 43//37 
f 39//37 17//37 41//37 
f 37//37 17//37 39//37 
f 35//37 17//37 37//37 
f 33//37 17//37 35//37 
f 31//37 17//37 33//37 
f 29//37 17//37 31//37 
f 29//37 19//37 17//37 
f 27//37 19//37 29//37 
f 27//37 21//37 19//37 
f 27//37 23//37 21//37 
f 25//37 23//37 27//37 
f 60//38 62//38 64//38 
f 58//38 60//38 64//38 
f 56//38 58//38 64//38 
f 54//38 56//38 64//38 
f 52//38 54//38 64//38 
f 50//38 52//38 64//38 
f 48//38 50//38 64//38 
f 48//38 64//38 4//38 
f 48//38 4//38 3//38 
f 48//38 3//38 6//38 
f 48//38 6//38 8//38 
f 48//38 8//38 10//38 
f 48//38 10//38 12//38 
f 48//38 12//38 14//38 
f 48//38 14//38 16//38 
f 48//38 16//38 18//38 
f 46//38 48//38 18//38 
f 44//38 46//38 18//38 
f 42//38 44//38 18//38 
f 40//38 42//38 18//38 
f 38//38 40//38 18//38 
f 36//38 38//38 18//38 
f 34//38 36//38 18//38 
f 32//38 34//38 18//38 
f 30//38 32//38 18//38 
f 30//38 18//38 20//38 
f 28//38 30//38 20//38 
f 28//38 20//38 22//38 
f 28//38 22//38 24//38 
f 26//38 28//38 24//38 
# 124 faces

#
# object Rectangle003
#

v  67.5270 44.8874 23.7813
v  67.4741 45.3457 23.7813
v  67.4741 45.3457 25.7813
v  67.5270 44.8874 25.7813
v  67.3235 45.7665 23.7813
v  67.3235 45.7665 25.7813
v  67.0873 46.1379 23.7813
v  67.0873 46.1379 25.7813
v  66.7775 46.4477 23.7813
v  66.7775 46.4477 25.7813
v  66.4061 46.6839 23.7813
v  66.4061 46.6839 25.7813
v  65.9853 46.8345 23.7813
v  65.9853 46.8345 25.7813
v  65.5270 46.8874 23.7813
v  65.5270 46.8874 25.7813
v  -72.4730 46.8874 23.7813
v  -72.4730 46.8874 25.7813
v  -72.9313 46.8345 23.7813
v  -72.9313 46.8345 25.7813
v  -73.3521 46.6839 23.7813
v  -73.3521 46.6839 25.7813
v  -73.7235 46.4477 23.7813
v  -73.7235 46.4477 25.7813
v  -74.0333 46.1379 23.7813
v  -74.0333 46.1379 25.7813
v  -74.2695 45.7665 23.7813
v  -74.2695 45.7665 25.7813
v  -74.4201 45.3457 23.7813
v  -74.4201 45.3457 25.7813
v  -74.4730 44.8874 23.7813
v  -74.4730 44.8874 25.7813
v  -74.4730 -46.1126 23.7813
v  -74.4730 -46.1126 25.7813
v  -74.4201 -46.5709 23.7813
v  -74.4201 -46.5709 25.7813
v  -74.2696 -46.9917 23.7813
v  -74.2696 -46.9917 25.7813
v  -74.0333 -47.3631 23.7813
v  -74.0333 -47.3631 25.7813
v  -73.7235 -47.6729 23.7813
v  -73.7235 -47.6729 25.7813
v  -73.3521 -47.9091 23.7813
v  -73.3521 -47.9091 25.7813
v  -72.9313 -48.0597 23.7813
v  -72.9313 -48.0597 25.7813
v  -72.4730 -48.1126 23.7813
v  -72.4730 -48.1126 25.7813
v  65.5270 -48.1126 23.7813
v  65.5270 -48.1126 25.7813
v  65.9853 -48.0597 23.7813
v  65.9853 -48.0597 25.7813
v  66.4061 -47.9092 23.7813
v  66.4061 -47.9092 25.7813
v  66.7775 -47.6729 23.7813
v  66.7775 -47.6729 25.7813
v  67.0873 -47.3631 23.7813
v  67.0873 -47.3631 25.7813
v  67.3235 -46.9917 23.7813
v  67.3235 -46.9917 25.7813
v  67.4741 -46.5709 23.7813
v  67.4741 -46.5709 25.7813
v  67.5270 -46.1126 23.7813
v  67.5270 -46.1126 25.7813
# 64 vertices

vn 0.9934 0.1146 0.0000
vn 0.9738 0.2272 0.0000
vn 0.8982 0.4395 0.0000
vn 0.7801 0.6257 0.0000
vn 0.6257 0.7801 0.0000
vn 0.4395 0.8982 0.0000
vn 0.2272 0.9738 0.0000
vn 0.1146 0.9934 0.0000
vn 0.0000 1.0000 0.0000
vn -0.1146 0.9934 0.0000
vn -0.2272 0.9738 0.0000
vn -0.4395 0.8982 0.0000
vn -0.6257 0.7801 0.0000
vn -0.7801 0.6257 0.0000
vn -0.8982 0.4395 0.0000
vn -0.9738 0.2272 0.0000
vn -0.9934 0.1146 0.0000
vn -1.0000 0.0000 -0.0000
vn -0.9934 -0.1146 -0.0000
vn -0.9738 -0.2272 -0.0000
vn -0.8982 -0.4395 -0.0000
vn -0.7801 -0.6257 -0.0000
vn -0.6257 -0.7801 -0.0000
vn -0.4395 -0.8982 -0.0000
vn -0.2272 -0.9738 -0.0000
vn -0.1146 -0.9934 -0.0000
vn 0.0000 -1.0000 -0.0000
vn 0.1146 -0.9934 -0.0000
vn 0.2272 -0.9738 -0.0000
vn 0.4395 -0.8982 -0.0000
vn 0.6257 -0.7801 -0.0000
vn 0.7801 -0.6257 -0.0000
vn 0.8982 -0.4395 -0.0000
vn 0.9738 -0.2272 -0.0000
vn 0.9934 -0.1146 -0.0000
vn 1.0000 0.0000 -0.0000
vn 0.0000 0.0000 -1.0000
vn 0.0000 -0.0000 1.0000
# 38 vertex normals

vt 1.0000 0.9789 0.0000
vt 0.9996 0.9838 0.0000
vt 0.9996 0.9838 10.0000
vt 1.0000 0.9789 10.0000
vt 0.9986 0.9882 0.0000
vt 0.9986 0.9882 10.0000
vt 0.9969 0.9921 0.0000
vt 0.9969 0.9921 10.0000
vt 0.9947 0.9954 0.0000
vt 0.9947 0.9954 10.0000
vt 0.9921 0.9979 0.0000
vt 0.9921 0.9979 10.0000
vt 0.9891 0.9994 0.0000
vt 0.9891 0.9994 10.0000
vt 0.9859 1.0000 0.0000
vt 0.9859 1.0000 10.0000
vt 0.0141 1.0000 0.0000
vt 0.0141 1.0000 10.0000
vt 0.0109 0.9994 0.0000
vt 0.0109 0.9994 10.0000
vt 0.0079 0.9979 0.0000
vt 0.0079 0.9979 10.0000
vt 0.0053 0.9954 0.0000
vt 0.0053 0.9954 10.0000
vt 0.0031 0.9921 0.0000
vt 0.0031 0.9921 10.0000
vt 0.0014 0.9882 0.0000
vt 0.0014 0.9882 10.0000
vt 0.0004 0.9838 0.0000
vt 0.0004 0.9838 10.0000
vt 0.0000 0.9789 0.0000
vt 0.0000 0.9789 10.0000
vt 0.0000 0.0211 0.0000
vt 0.0000 0.0211 10.0000
vt 0.0004 0.0162 0.0000
vt 0.0004 0.0162 10.0000
vt 0.0014 0.0118 0.0000
vt 0.0014 0.0118 10.0000
vt 0.0031 0.0079 0.0000
vt 0.0031 0.0079 10.0000
vt 0.0053 0.0046 0.0000
vt 0.0053 0.0046 10.0000
vt 0.0079 0.0021 0.0000
vt 0.0079 0.0021 10.0000
vt 0.0109 0.0006 0.0000
vt 0.0109 0.0006 10.0000
vt 0.0141 0.0000 0.0000
vt 0.0141 0.0000 10.0000
vt 0.9859 0.0000 0.0000
vt 0.9859 0.0000 10.0000
vt 0.9891 0.0006 0.0000
vt 0.9891 0.0006 10.0000
vt 0.9921 0.0021 0.0000
vt 0.9921 0.0021 10.0000
vt 0.9947 0.0046 0.0000
vt 0.9947 0.0046 10.0000
vt 0.9969 0.0079 0.0000
vt 0.9969 0.0079 10.0000
vt 0.9986 0.0118 0.0000
vt 0.9986 0.0118 10.0000
vt 0.9996 0.0162 0.0000
vt 0.9996 0.0162 10.0000
vt 1.0000 0.0211 0.0000
vt 1.0000 0.0211 10.0000
# 64 texture coords

o Rectangle003
g Rectangle003
usemtl 03___Default
s 1
f 65/1/39 66/2/40 67/3/40 
f 65/1/39 67/3/40 68/4/39 
s 3
f 66/2/40 69/5/41 70/6/41 
f 66/2/40 70/6/41 67/3/40 
s 2
f 69/5/41 71/7/42 72/8/42 
f 69/5/41 72/8/42 70/6/41 
f 71/7/42 73/9/43 74/10/43 
f 71/7/42 74/10/43 72/8/42 
f 73/9/43 75/11/44 76/12/44 
f 73/9/43 76/12/44 74/10/43 
f 75/11/44 77/13/45 78/14/45 
f 75/11/44 78/14/45 76/12/44 
f 77/13/45 79/15/46 80/16/46 
f 77/13/45 80/16/46 78/14/45 
s 4
f 79/15/47 81/17/47 82/18/47 
f 79/15/47 82/18/47 80/16/47 
s 2
f 81/17/48 83/19/49 84/20/49 
f 81/17/48 84/20/49 82/18/48 
f 83/19/49 85/21/50 86/22/50 
f 83/19/49 86/22/50 84/20/49 
f 85/21/50 87/23/51 88/24/51 
f 85/21/50 88/24/51 86/22/50 
f 87/23/51 89/25/52 90/26/52 
f 87/23/51 90/26/52 88/24/51 
f 89/25/52 91/27/53 92/28/53 
f 89/25/52 92/28/53 90/26/52 
f 91/27/53 93/29/54 94/30/54 
f 91/27/53 94/30/54 92/28/53 
f 93/29/54 95/31/55 96/32/55 
f 93/29/54 96/32/55 94/30/54 
s 4
f 95/31/56 97/33/56 98/34/56 
f 95/31/56 98/34/56 96/32/56 
s 2
f 97/33/57 99/35/58 100/36/58 
f 97/33/57 100/36/58 98/34/57 
f 99/35/58 101/37/59 102/38/59 
f 99/35/58 102/38/59 100/36/58 
f 101/37/59 103/39/60 104/40/60 
f 101/37/59 104/40/60 102/38/59 
f 103/39/60 105/41/61 106/42/61 
f 103/39/60 106/42/61 104/40/60 
f 105/41/61 107/43/62 108/44/62 
f 105/41/61 108/44/62 106/42/61 
f 107/43/62 109/45/63 110/46/63 
f 107/43/62 110/46/63 108/44/62 
f 109/45/63 111/47/64 112/48/64 
f 109/45/63 112/48/64 110/46/63 
s 4
f 111/47/65 113/49/65 114/50/65 
f 111/47/65 114/50/65 112/48/65 
s 2
f 113/49/66 115/51/67 116/52/67 
f 113/49/66 116/52/67 114/50/66 
f 115/51/67 117/53/68 118/54/68 
f 115/51/67 118/54/68 116/52/67 
f 117/53/68 119/55/69 120/56/69 
f 117/53/68 120/56/69 118/54/68 
f 119/55/69 121/57/70 122/58/70 
f 119/55/69 122/58/70 120/56/69 
f 121/57/70 123/59/71 124/60/71 
f 121/57/70 124/60/71 122/58/70 
f 123/59/71 125/61/72 126/62/72 
f 123/59/71 126/62/72 124/60/71 
f 125/61/72 127/63/73 128/64/73 
f 125/61/72 128/64/73 126/62/72 
s 4
f 127/63/74 65/1/74 68/4/74 
f 127/63/74 68/4/74 128/64/74 
s 16
f 107/43/75 111/47/75 109/45/75 
f 105/41/75 111/47/75 107/43/75 
f 103/39/75 111/47/75 105/41/75 
f 101/37/75 111/47/75 103/39/75 
f 99/35/75 111/47/75 101/37/75 
f 97/33/75 111/47/75 99/35/75 
f 95/31/75 111/47/75 97/33/75 
f 95/31/75 113/49/75 111/47/75 
f 93/29/75 113/49/75 95/31/75 
f 91/27/75 113/49/75 93/29/75 
f 89/25/75 113/49/75 91/27/75 
f 87/23/75 113/49/75 89/25/75 
f 85/21/75 113/49/75 87/23/75 
f 83/19/75 113/49/75 85/21/75 
f 81/17/75 113/49/75 83/19/75 
f 79/15/75 113/49/75 81/17/75 
f 77/13/75 113/49/75 79/15/75 
f 75/11/75 113/49/75 77/13/75 
f 73/9/75 113/49/75 75/11/75 
f 71/7/75 113/49/75 73/9/75 
f 69/5/75 113/49/75 71/7/75 
f 66/2/75 113/49/75 69/5/75 
f 65/1/75 113/49/75 66/2/75 
f 127/63/75 113/49/75 65/1/75 
f 125/61/75 113/49/75 127/63/75 
f 125/61/75 115/51/75 113/49/75 
f 123/59/75 115/51/75 125/61/75 
f 123/59/75 117/53/75 115/51/75 
f 123/59/75 119/55/75 117/53/75 
f 121/57/75 119/55/75 123/59/75 
f 108/44/76 110/46/76 112/48/76 
f 106/42/76 108/44/76 112/48/76 
f 104/40/76 106/42/76 112/48/76 
f 102/38/76 104/40/76 112/48/76 
f 100/36/76 102/38/76 112/48/76 
f 98/34/76 100/36/76 112/48/76 
f 96/32/76 98/34/76 112/48/76 
f 96/32/76 112/48/76 114/50/76 
f 94/30/76 96/32/76 114/50/76 
f 92/28/76 94/30/76 114/50/76 
f 90/26/76 92/28/76 114/50/76 
f 88/24/76 90/26/76 114/50/76 
f 86/22/76 88/24/76 114/50/76 
f 84/20/76 86/22/76 114/50/76 
f 82/18/76 84/20/76 114/50/76 
f 80/16/76 82/18/76 114/50/76 
f 78/14/76 80/16/76 114/50/76 
f 76/12/76 78/14/76 114/50/76 
f 74/10/76 76/12/76 114/50/76 
f 72/8/76 74/10/76 114/50/76 
f 70/6/76 72/8/76 114/50/76 
f 67/3/76 70/6/76 114/50/76 
f 68/4/76 67/3/76 114/50/76 
f 128/64/76 68/4/76 114/50/76 
f 126/62/76 128/64/76 114/50/76 
f 126/62/76 114/50/76 116/52/76 
f 124/60/76 126/62/76 116/52/76 
f 124/60/76 116/52/76 118/54/76 
f 124/60/76 118/54/76 120/56/76 
f 122/58/76 124/60/76 120/56/76 
# 124 faces

#
# object Rectangle001
#

v  67.5270 44.8874 17.7808
v  67.4741 45.3457 17.7808
v  67.4741 45.3457 23.7808
v  67.5270 44.8874 23.7808
v  67.3235 45.7665 17.7808
v  67.3235 45.7665 23.7808
v  67.0873 46.1379 17.7808
v  67.0873 46.1379 23.7808
v  66.7775 46.4477 17.7808
v  66.7775 46.4477 23.7808
v  66.4061 46.6839 17.7808
v  66.4061 46.6839 23.7808
v  65.9853 46.8345 17.7808
v  65.9853 46.8345 23.7808
v  65.5270 46.8874 17.7808
v  65.5270 46.8874 23.7808
v  -72.4730 46.8874 17.7808
v  -72.4730 46.8874 23.7808
v  -72.9313 46.8345 17.7808
v  -72.9313 46.8345 23.7808
v  -73.3521 46.6839 17.7808
v  -73.3521 46.6839 23.7808
v  -73.7235 46.4477 17.7808
v  -73.7235 46.4477 23.7808
v  -74.0333 46.1379 17.7808
v  -74.0333 46.1379 23.7808
v  -74.2695 45.7665 17.7808
v  -74.2695 45.7665 23.7808
v  -74.4201 45.3457 17.7808
v  -74.4201 45.3457 23.7808
v  -74.4730 44.8874 17.7808
v  -74.4730 44.8874 23.7808
v  -74.4730 -46.1126 17.7808
v  -74.4730 -46.1126 23.7808
v  -74.4201 -46.5709 17.7808
v  -74.4201 -46.5709 23.7808
v  -74.2696 -46.9917 17.7808
v  -74.2696 -46.9917 23.7808
v  -74.0333 -47.3631 17.7808
v  -74.0333 -47.3631 23.7808
v  -73.7235 -47.6729 17.7808
v  -73.7235 -47.6729 23.7808
v  -73.3521 -47.9091 17.7808
v  -73.3521 -47.9091 23.7808
v  -72.9313 -48.0597 17.7808
v  -72.9313 -48.0597 23.7808
v  -72.4730 -48.1126 17.7808
v  -72.4730 -48.1126 23.7808
v  65.5270 -48.1126 17.7808
v  65.5270 -48.1126 23.7808
v  65.9853 -48.0597 17.7808
v  65.9853 -48.0597 23.7808
v  66.4061 -47.9092 17.7808
v  66.4061 -47.9092 23.7808
v  66.7775 -47.6729 17.7808
v  66.7775 -47.6729 23.7808
v  67.0873 -47.3631 17.7808
v  67.0873 -47.3631 23.7808
v  67.3235 -46.9917 17.7808
v  67.3235 -46.9917 23.7808
v  67.4741 -46.5709 17.7808
v  67.4741 -46.5709 23.7808
v  67.5270 -46.1126 17.7808
v  67.5270 -46.1126 23.7808
# 64 vertices

vn 0.9934 0.1146 0.0000
vn 0.9738 0.2272 0.0000
vn 0.8982 0.4395 0.0000
vn 0.7801 0.6257 0.0000
vn 0.6257 0.7801 0.0000
vn 0.4395 0.8982 0.0000
vn 0.2272 0.9738 0.0000
vn 0.1146 0.9934 0.0000
vn 0.0000 1.0000 0.0000
vn -0.1146 0.9934 0.0000
vn -0.2272 0.9738 0.0000
vn -0.4395 0.8982 0.0000
vn -0.6257 0.7801 0.0000
vn -0.7801 0.6257 0.0000
vn -0.8982 0.4395 0.0000
vn -0.9738 0.2272 0.0000
vn -0.9934 0.1146 0.0000
vn -1.0000 0.0000 -0.0000
vn -0.9934 -0.1146 -0.0000
vn -0.9738 -0.2272 -0.0000
vn -0.8982 -0.4395 -0.0000
vn -0.7801 -0.6257 -0.0000
vn -0.6257 -0.7801 -0.0000
vn -0.4395 -0.8982 -0.0000
vn -0.2272 -0.9738 -0.0000
vn -0.1146 -0.9934 -0.0000
vn 0.0000 -1.0000 -0.0000
vn 0.1146 -0.9934 -0.0000
vn 0.2272 -0.9738 -0.0000
vn 0.4395 -0.8982 -0.0000
vn 0.6257 -0.7801 -0.0000
vn 0.7801 -0.6257 -0.0000
vn 0.8982 -0.4395 -0.0000
vn 0.9738 -0.2272 -0.0000
vn 0.9934 -0.1146 -0.0000
vn 1.0000 0.0000 -0.0000
vn 0.0000 0.0000 -1.0000
vn 0.0000 -0.0000 1.0000
# 38 vertex normals

o Rectangle001
g Rectangle001
usemtl wire_188188188
s 1
f 129//77 130//78 131//78 
f 129//77 131//78 132//77 
s 3
f 130//78 133//79 134//79 
f 130//78 134//79 131//78 
s 2
f 133//79 135//80 136//80 
f 133//79 136//80 134//79 
f 135//80 137//81 138//81 
f 135//80 138//81 136//80 
f 137//81 139//82 140//82 
f 137//81 140//82 138//81 
f 139//82 141//83 142//83 
f 139//82 142//83 140//82 
f 141//83 143//84 144//84 
f 141//83 144//84 142//83 
s 4
f 143//85 145//85 146//85 
f 143//85 146//85 144//85 
s 2
f 145//86 147//87 148//87 
f 145//86 148//87 146//86 
f 147//87 149//88 150//88 
f 147//87 150//88 148//87 
f 149//88 151//89 152//89 
f 149//88 152//89 150//88 
f 151//89 153//90 154//90 
f 151//89 154//90 152//89 
f 153//90 155//91 156//91 
f 153//90 156//91 154//90 
f 155//91 157//92 158//92 
f 155//91 158//92 156//91 
f 157//92 159//93 160//93 
f 157//92 160//93 158//92 
s 4
f 159//94 161//94 162//94 
f 159//94 162//94 160//94 
s 2
f 161//95 163//96 164//96 
f 161//95 164//96 162//95 
f 163//96 165//97 166//97 
f 163//96 166//97 164//96 
f 165//97 167//98 168//98 
f 165//97 168//98 166//97 
f 167//98 169//99 170//99 
f 167//98 170//99 168//98 
f 169//99 171//100 172//100 
f 169//99 172//100 170//99 
f 171//100 173//101 174//101 
f 171//100 174//101 172//100 
f 173//101 175//102 176//102 
f 173//101 176//102 174//101 
s 4
f 175//103 177//103 178//103 
f 175//103 178//103 176//103 
s 2
f 177//104 179//105 180//105 
f 177//104 180//105 178//104 
f 179//105 181//106 182//106 
f 179//105 182//106 180//105 
f 181//106 183//107 184//107 
f 181//106 184//107 182//106 
f 183//107 185//108 186//108 
f 183//107 186//108 184//107 
f 185//108 187//109 188//109 
f 185//108 188//109 186//108 
f 187//109 189//110 190//110 
f 187//109 190//110 188//109 
f 189//110 191//111 192//111 
f 189//110 192//111 190//110 
s 4
f 191//112 129//112 132//112 
f 191//112 132//112 192//112 
s 16
f 171//113 175//113 173//113 
f 169//113 175//113 171//113 
f 167//113 175//113 169//113 
f 165//113 175//113 167//113 
f 163//113 175//113 165//113 
f 161//113 175//113 163//113 
f 159//113 175//113 161//113 
f 159//113 177//113 175//113 
f 157//113 177//113 159//113 
f 155//113 177//113 157//113 
f 153//113 177//113 155//113 
f 151//113 177//113 153//113 
f 149//113 177//113 151//113 
f 147//113 177//113 149//113 
f 145//113 177//113 147//113 
f 143//113 177//113 145//113 
f 141//113 177//113 143//113 
f 139//113 177//113 141//113 
f 137//113 177//113 139//113 
f 135//113 177//113 137//113 
f 133//113 177//113 135//113 
f 130//113 177//113 133//113 
f 129//113 177//113 130//113 
f 191//113 177//113 129//113 
f 189//113 177//113 191//113 
f 189//113 179//113 177//113 
f 187//113 179//113 189//113 
f 187//113 181//113 179//113 
f 187//113 183//113 181//113 
f 185//113 183//113 187//113 
f 172//114 174//114 176//114 
f 170//114 172//114 176//114 
f 168//114 170//114 176//114 
f 166//114 168//114 176//114 
f 164//114 166//114 176//114 
f 162//114 164//114 176//114 
f 160//114 162//114 176//114 
f 160//114 176//114 178//114 
f 158//114 160//114 178//114 
f 156//114 158//114 178//114 
f 154//114 156//114 178//114 
f 152//114 154//114 178//114 
f 150//114 152//114 178//114 
f 148//114 150//114 178//114 
f 146//114 148//114 178//114 
f 144//114 146//114 178//114 
f 142//114 144//114 178//114 
f 140//114 142//114 178//114 
f 138//114 140//114 178//114 
f 136//114 138//114 178//114 
f 134//114 136//114 178//114 
f 131//114 134//114 178//114 
f 132//114 131//114 178//114 
f 192//114 132//114 178//114 
f 190//114 192//114 178//114 
f 190//114 178//114 180//114 
f 188//114 190//114 180//114 
f 188//114 180//114 182//114 
f 188//114 182//114 184//114 
f 186//114 188//114 184//114 
# 124 faces

