# 3ds Max Wavefront OBJ Exporter v0.97b - (c)2007 guruware
# 创建的文件:25.04.2019 17:25:56

mtllib internalscreen.mtl

#
# object Rectangle003
#

v  237.1373 115.9694 15.0971
v  237.4016 113.6781 15.0971
v  237.4016 113.6781 -14.9029
v  237.1373 115.9694 -14.9029
v  236.3844 118.0736 15.0971
v  236.3844 118.0736 -14.9029
v  235.2032 119.9305 15.0971
v  235.2032 119.9305 -14.9029
v  233.6540 121.4796 15.0971
v  233.6540 121.4796 -14.9029
v  231.7972 122.6608 15.0971
v  231.7972 122.6608 -14.9029
v  229.6930 123.4137 15.0971
v  229.6930 123.4137 -14.9029
v  227.4016 123.6781 15.0971
v  227.4016 123.6781 -14.9029
v  -212.5984 123.6781 -14.9029
v  -212.5984 123.6781 15.0971
v  169.9685 123.6781 15.0971
v  194.7499 123.6781 15.0971
v  -214.8897 123.4137 15.0971
v  -214.8897 123.4137 -14.9029
v  -216.9940 122.6608 15.0971
v  -216.9940 122.6608 -14.9029
v  -218.8508 121.4796 15.0971
v  -218.8508 121.4796 -14.9029
v  -220.3999 119.9305 15.0971
v  -220.3999 119.9305 -14.9029
v  -221.5811 118.0736 15.0971
v  -221.5811 118.0736 -14.9029
v  -222.3340 115.9694 15.0971
v  -222.3340 115.9694 -14.9029
v  -222.5984 113.6781 15.0971
v  -222.5984 113.6781 -14.9029
v  -222.5984 -119.3219 -14.9030
v  -222.5984 -119.3219 15.0970
v  -222.5984 -11.6864 15.0970
v  -222.5984 32.3849 15.0971
v  -222.3340 -121.6133 15.0970
v  -222.3340 -121.6133 -14.9030
v  -221.5811 -123.7175 15.0970
v  -221.5811 -123.7175 -14.9030
v  -220.3999 -125.5743 15.0970
v  -220.3999 -125.5743 -14.9030
v  -218.8508 -127.1235 15.0970
v  -218.8508 -127.1235 -14.9030
v  -216.9939 -128.3047 15.0970
v  -216.9939 -128.3046 -14.9030
v  -214.8897 -129.0576 15.0970
v  -214.8897 -129.0576 -14.9030
v  -212.5984 -129.3219 15.0970
v  -212.5984 -129.3219 -14.9030
v  227.4016 -129.3219 -14.9030
v  227.4016 -129.3219 15.0970
v  197.6576 -129.3219 15.0970
v  172.6884 -129.3219 15.0970
v  229.6929 -129.0576 15.0970
v  229.6929 -129.0576 -14.9030
v  231.7972 -128.3047 15.0970
v  231.7972 -128.3047 -14.9030
v  233.6540 -127.1235 15.0970
v  233.6540 -127.1235 -14.9030
v  235.2032 -125.5743 15.0970
v  235.2032 -125.5743 -14.9030
v  236.3843 -123.7175 15.0970
v  236.3843 -123.7175 -14.9030
v  237.1373 -121.6133 15.0970
v  237.1373 -121.6133 -14.9030
v  237.4016 -119.3219 15.0970
v  237.4016 -119.3219 -14.9030
v  237.4016 17.5453 15.0970
v  237.4016 -18.7639 15.0970
v  171.0607 -17.7497 15.0970
v  196.0936 -17.7482 15.0970
v  171.0865 18.8533 15.0970
v  195.9543 18.8824 15.0970
v  195.9543 18.8824 -14.2707
v  171.0865 18.8533 -14.2707
v  171.0607 -17.7497 9.1026
v  196.0936 -17.7482 9.1026
# 80 vertices

vn 0.9738 0.2272 0.0000
vn 0.9934 0.1146 0.0000
vn 0.8982 0.4395 0.0000
vn 0.7801 0.6257 0.0000
vn 0.6257 0.7801 0.0000
vn 0.4395 0.8982 0.0000
vn 0.2272 0.9738 0.0000
vn 0.1146 0.9934 0.0000
vn 0.0000 1.0000 0.0000
vn -0.2272 0.9738 0.0000
vn -0.1146 0.9934 0.0000
vn -0.4395 0.8982 0.0000
vn -0.6257 0.7801 0.0000
vn -0.7801 0.6257 0.0000
vn -0.8982 0.4395 0.0000
vn -0.9738 0.2272 0.0000
vn -0.9934 0.1146 0.0000
vn -1.0000 0.0000 -0.0000
vn -0.9738 -0.2272 -0.0000
vn -0.9934 -0.1146 -0.0000
vn -0.8982 -0.4395 -0.0000
vn -0.7801 -0.6257 -0.0000
vn -0.6257 -0.7801 -0.0000
vn -0.4395 -0.8982 -0.0000
vn -0.2272 -0.9738 -0.0000
vn -0.1146 -0.9934 -0.0000
vn 0.0000 -1.0000 -0.0000
vn 0.2272 -0.9738 -0.0000
vn 0.1146 -0.9934 -0.0000
vn 0.4395 -0.8982 -0.0000
vn 0.6257 -0.7801 -0.0000
vn 0.7801 -0.6257 -0.0000
vn 0.8982 -0.4395 -0.0000
vn 0.9738 -0.2272 -0.0000
vn 0.9934 -0.1146 -0.0000
vn 1.0000 0.0000 0.0000
vn 1.0000 0.0000 -0.0000
vn 1.0000 -0.0000 0.0000
vn 0.0000 0.0000 -1.0000
vn 0.0000 -0.0000 1.0000
vn -0.0000 -0.0000 1.0000
vn -0.0004 0.5381 0.8429
vn -0.0006 0.5382 0.8428
vn -0.0002 0.5380 0.8429
vn -0.0000 0.5379 0.8430
vn 0.0012 -1.0000 -0.0000
vn 1.0000 -0.0007 -0.0000
vn -0.0001 1.0000 0.0000
vn -1.0000 -0.0038 -0.0000
# 49 vertex normals

o Rectangle003
g Rectangle003
usemtl 不锈钢
s 1
f 1//1 2//2 3//2 
f 3//2 4//1 1//1 
s 3
f 5//3 1//1 4//1 
f 4//1 6//3 5//3 
s 2
f 7//4 5//3 6//3 
f 6//3 8//4 7//4 
f 9//5 7//4 8//4 
f 8//4 10//5 9//5 
f 11//6 9//5 10//5 
f 10//5 12//6 11//6 
f 13//7 11//6 12//6 
f 12//6 14//7 13//7 
f 15//8 13//7 14//7 
f 14//7 16//8 15//8 
s 4
f 16//9 17//9 18//9 
f 16//9 18//9 19//9 
f 16//9 19//9 20//9 
f 16//9 20//9 15//9 
s 2
f 21//10 18//11 17//11 
f 17//11 22//10 21//10 
f 23//12 21//10 22//10 
f 22//10 24//12 23//12 
f 25//13 23//12 24//12 
f 24//12 26//13 25//13 
f 27//14 25//13 26//13 
f 26//13 28//14 27//14 
f 29//15 27//14 28//14 
f 28//14 30//15 29//15 
f 31//16 29//15 30//15 
f 30//15 32//16 31//16 
f 33//17 31//16 32//16 
f 32//16 34//17 33//17 
s 4
f 34//18 35//18 36//18 
f 34//18 36//18 37//18 
f 34//18 37//18 38//18 
f 34//18 38//18 33//18 
s 2
f 39//19 36//20 35//20 
f 35//20 40//19 39//19 
f 41//21 39//19 40//19 
f 40//19 42//21 41//21 
f 43//22 41//21 42//21 
f 42//21 44//22 43//22 
f 45//23 43//22 44//22 
f 44//22 46//23 45//23 
f 47//24 45//23 46//23 
f 46//23 48//24 47//24 
f 49//25 47//24 48//24 
f 48//24 50//25 49//25 
f 51//26 49//25 50//25 
f 50//25 52//26 51//26 
s 4
f 52//27 53//27 54//27 
f 52//27 54//27 55//27 
f 52//27 55//27 56//27 
f 52//27 56//27 51//27 
s 2
f 57//28 54//29 53//29 
f 53//29 58//28 57//28 
f 59//30 57//28 58//28 
f 58//28 60//30 59//30 
f 61//31 59//30 60//30 
f 60//30 62//31 61//31 
f 63//32 61//31 62//31 
f 62//31 64//32 63//32 
f 65//33 63//32 64//32 
f 64//32 66//33 65//33 
f 67//34 65//33 66//33 
f 66//33 68//34 67//34 
f 69//35 67//34 68//34 
f 68//34 70//35 69//35 
s 4
f 70//36 3//37 2//37 
f 70//36 2//37 71//38 
f 70//36 71//38 72//38 
f 70//36 72//38 69//36 
s 16
f 66//39 64//39 62//39 
f 66//39 62//39 60//39 
f 66//39 60//39 58//39 
f 68//39 66//39 58//39 
f 68//39 58//39 53//39 
f 70//39 68//39 53//39 
f 3//39 70//39 53//39 
f 4//39 3//39 53//39 
f 6//39 4//39 53//39 
f 8//39 6//39 53//39 
f 10//39 8//39 53//39 
f 12//39 10//39 53//39 
f 14//39 12//39 53//39 
f 16//39 14//39 53//39 
f 17//39 16//39 53//39 
f 22//39 17//39 53//39 
f 24//39 22//39 53//39 
f 26//39 24//39 53//39 
f 28//39 26//39 53//39 
f 30//39 28//39 53//39 
f 32//39 30//39 53//39 
f 34//39 32//39 53//39 
f 34//39 53//39 52//39 
f 35//39 34//39 52//39 
f 40//39 35//39 52//39 
f 42//39 40//39 52//39 
f 44//39 42//39 52//39 
f 46//39 44//39 52//39 
f 48//39 46//39 52//39 
f 48//39 52//39 50//39 
f 49//40 51//40 56//40 
f 56//40 73//40 37//40 
f 49//40 56//40 37//40 
f 37//40 36//40 39//40 
f 49//40 37//40 39//40 
f 39//40 41//40 43//40 
f 49//40 39//40 43//40 
f 49//40 43//40 45//40 
f 47//40 49//40 45//40 
f 56//40 55//40 74//40 
f 74//40 73//40 56//40 
f 54//40 57//40 59//40 
f 59//40 61//40 63//40 
f 54//40 59//40 63//40 
f 63//40 65//40 67//41 
f 54//40 63//40 67//41 
f 67//41 69//41 72//40 
f 54//40 67//41 72//40 
f 54//40 72//40 74//40 
f 55//40 54//40 74//40 
f 19//40 18//40 21//40 
f 21//40 23//40 25//40 
f 19//40 21//40 25//40 
f 25//40 27//40 29//40 
f 29//40 31//40 33//40 
f 25//40 29//40 33//40 
f 19//40 25//40 33//40 
f 19//40 33//40 38//40 
f 75//40 19//40 38//40 
f 20//40 19//40 75//40 
f 75//40 76//40 20//40 
f 2//40 1//40 5//40 
f 5//40 7//40 9//40 
f 2//40 5//40 9//40 
f 9//40 11//40 13//40 
f 2//40 9//40 13//40 
f 13//40 15//40 20//40 
f 2//40 13//40 20//40 
f 2//40 20//40 76//40 
f 71//40 2//40 76//40 
f 75//40 38//40 37//40 
f 37//40 73//40 75//40 
f 77//42 78//43 79//44 
f 79//44 80//45 77//42 
f 71//40 76//40 74//40 
f 74//40 72//40 71//40 
s off
f 76//46 75//46 78//46 
f 78//46 77//46 76//46 
f 75//47 73//47 79//47 
f 79//47 78//47 75//47 
f 73//48 74//48 80//48 
f 80//48 79//48 73//48 
f 74//49 76//49 77//49 
f 77//49 80//49 74//49 
# 156 faces

#
# object Rectangle023
#

v  138.9639 89.4274 15.0292
v  -188.5561 89.4274 15.0292
v  -188.5561 89.4274 18.0292
v  138.9639 89.4274 18.0292
v  -188.5561 -94.1391 15.0291
v  -188.5561 -94.1391 18.0291
v  138.9639 -94.1391 15.0291
v  138.9639 -94.1391 18.0291
# 8 vertices

vn 0.0000 1.0000 0.0000
vn -1.0000 0.0000 -0.0000
vn 0.0000 -1.0000 -0.0000
vn 1.0000 0.0000 -0.0000
vn 0.0000 0.0000 -1.0000
vn 0.0000 -0.0000 1.0000
# 6 vertex normals

vt -0.0000 0.0000 1.0000
vt 1.0000 0.0000 1.0000
vt 1.0000 1.0000 1.0000
vt -0.0000 1.0000 1.0000
vt 0.0000 0.0000 0.0000
vt 1.0000 0.0000 -0.0000
vt 1.0000 1.0000 -0.0000
vt 0.0000 1.0000 0.0000
vt -0.0000 0.0000 0.0000
vt 1.0000 0.0000 0.0000
vt 1.0000 1.0000 0.0000
vt -0.0000 1.0000 0.0000
vt 0.0000 0.0000 1.0000
vt 0.0000 1.0000 1.0000
# 14 texture coords

o Rectangle023
g Rectangle023
usemtl wire_225198087
s 1
f 81/1/50 82/2/50 83/3/50 
f 81/1/50 83/3/50 84/4/50 
s 4
f 82/5/51 85/6/51 86/7/51 
f 82/5/51 86/7/51 83/8/51 
s 2
f 85/9/52 87/10/52 88/11/52 
f 85/9/52 88/11/52 86/12/52 
s 4
f 87/13/53 81/2/53 84/3/53 
f 87/13/53 84/3/53 88/14/53 
s 16
f 85/10/54 81/12/54 87/5/54 
f 85/10/54 82/11/54 81/12/54 
f 86/1/55 88/2/55 84/3/55 
f 86/1/55 84/3/55 83/14/55 
# 12 faces

#
# object Rectangle111
#

v  193.3401 14.6292 -11.3454
v  173.5354 14.6292 -11.3454
v  173.5354 15.7016 -9.6573
v  193.3401 15.7016 -9.6573
v  173.5354 -14.5228 7.1742
v  173.5354 -13.4503 8.8623
v  193.3401 -14.5228 7.1742
v  193.3401 -13.4503 8.8623
# 8 vertices

vn 0.0000 0.8441 -0.5362
vn -1.0000 0.0000 -0.0000
vn 0.0000 -0.8441 0.5362
vn 1.0000 0.0000 -0.0000
vn 0.0000 -0.5362 -0.8441
vn 0.0000 0.5362 0.8441
# 6 vertex normals

o Rectangle111
g Rectangle111
usemtl 显示器_壳
s 1
f 89//56 90//56 91//56 
f 89//56 91//56 92//56 
s 4
f 90//57 93//57 94//57 
f 90//57 94//57 91//57 
s 2
f 93//58 95//58 96//58 
f 93//58 96//58 94//58 
s 4
f 95//59 89//59 92//59 
f 95//59 92//59 96//59 
s 16
f 93//60 89//60 95//60 
f 90//60 89//60 93//60 
f 94//61 96//61 92//61 
f 91//61 94//61 92//61 
# 12 faces

#
# object Circle001
#

v  176.8050 -72.7405 18.6948
v  176.9041 -73.5993 18.6948
v  178.4662 -73.5993 14.3696
v  178.3258 -72.3825 14.3696
v  176.5228 -71.9518 18.6948
v  177.9260 -71.2651 14.3696
v  176.0801 -71.2558 18.6948
v  177.2988 -70.2791 14.3696
v  175.4995 -70.6752 18.6948
v  176.4762 -69.4565 14.3696
v  174.8035 -70.2325 18.6948
v  175.4901 -68.8293 14.3696
v  174.0148 -69.9502 18.6948
v  174.3728 -68.4294 14.3696
v  173.1560 -69.8512 18.6948
v  173.1560 -68.2891 14.3696
v  172.2972 -69.9502 18.6948
v  171.9393 -68.4294 14.3696
v  171.5085 -70.2325 18.6948
v  170.8219 -68.8293 14.3696
v  170.8125 -70.6752 18.6948
v  169.8358 -69.4565 14.3696
v  170.2319 -71.2558 18.6948
v  169.0132 -70.2791 14.3696
v  169.7892 -71.9518 18.6948
v  168.3860 -71.2651 14.3696
v  169.5070 -72.7405 18.6948
v  167.9862 -72.3825 14.3696
v  169.4079 -73.5993 18.6948
v  167.8458 -73.5993 14.3696
v  169.5070 -74.4581 18.6948
v  167.9862 -74.8160 14.3696
v  169.7892 -75.2468 18.6948
v  168.3860 -75.9334 14.3696
v  170.2319 -75.9427 18.6948
v  169.0132 -76.9194 14.3696
v  170.8125 -76.5234 18.6948
v  169.8358 -77.7421 14.3696
v  171.5085 -76.9661 18.6948
v  170.8219 -78.3693 14.3696
v  172.2972 -77.2483 18.6948
v  171.9393 -78.7691 14.3696
v  173.1560 -77.3474 18.6948
v  173.1560 -78.9095 14.3696
v  174.0148 -77.2483 18.6948
v  174.3728 -78.7691 14.3696
v  174.8035 -76.9661 18.6948
v  175.4901 -78.3693 14.3696
v  175.4995 -76.5234 18.6948
v  176.4762 -77.7421 14.3696
v  176.0801 -75.9427 18.6948
v  177.2988 -76.9194 14.3696
v  176.5228 -75.2468 18.6948
v  177.9260 -75.9334 14.3696
v  176.8050 -74.4581 18.6948
v  178.3258 -74.8160 14.3696
# 56 vertices

vn 0.9159 0.2137 0.3397
vn 0.9405 -0.0000 0.3397
vn 0.9159 0.2138 0.3397
vn 0.8448 0.4134 0.3397
vn 0.7337 0.5885 0.3396
vn 0.5885 0.7337 0.3396
vn 0.4134 0.8448 0.3397
vn 0.2137 0.9159 0.3397
vn 0.2138 0.9159 0.3397
vn 0.0000 0.9405 0.3397
vn -0.2137 0.9159 0.3397
vn -0.2138 0.9159 0.3397
vn -0.4134 0.8448 0.3397
vn -0.5885 0.7337 0.3396
vn -0.7337 0.5885 0.3396
vn -0.8448 0.4134 0.3397
vn -0.9159 0.2137 0.3397
vn -0.9159 0.2138 0.3397
vn -0.9405 -0.0000 0.3397
vn -0.9159 -0.2137 0.3397
vn -0.9159 -0.2138 0.3397
vn -0.8448 -0.4134 0.3397
vn -0.7337 -0.5885 0.3396
vn -0.5885 -0.7337 0.3396
vn -0.4134 -0.8448 0.3397
vn -0.2137 -0.9159 0.3397
vn -0.2138 -0.9159 0.3397
vn -0.0000 -0.9405 0.3397
vn 0.2137 -0.9159 0.3397
vn 0.2138 -0.9159 0.3397
vn 0.4134 -0.8448 0.3397
vn 0.5885 -0.7337 0.3396
vn 0.7337 -0.5885 0.3396
vn 0.8448 -0.4134 0.3397
vn 0.9159 -0.2137 0.3397
vn 0.9159 -0.2138 0.3397
vn 0.0000 0.0000 -1.0000
vn 0.0000 -0.0000 1.0000
vn 0.0000 0.0000 1.0000
vn -0.0000 -0.0000 1.0000
vn -0.0000 0.0000 1.0000
# 41 vertex normals

o Circle001
g Circle001
usemtl 不锈钢
s 1
f 97//62 98//63 99//63 
f 99//63 100//64 97//62 
s 3
f 101//65 97//62 100//64 
f 100//64 102//65 101//65 
s 2
f 103//66 101//65 102//65 
f 102//65 104//66 103//66 
f 105//67 103//66 104//66 
f 104//66 106//67 105//67 
f 107//68 105//67 106//67 
f 106//67 108//68 107//68 
f 109//69 107//68 108//68 
f 108//68 110//70 109//69 
f 111//71 109//69 110//70 
f 110//70 112//71 111//71 
f 113//72 111//71 112//71 
f 112//71 114//73 113//72 
f 115//74 113//72 114//73 
f 114//73 116//74 115//74 
f 117//75 115//74 116//74 
f 116//74 118//75 117//75 
f 119//76 117//75 118//75 
f 118//75 120//76 119//76 
f 121//77 119//76 120//76 
f 120//76 122//77 121//77 
f 123//78 121//77 122//77 
f 122//77 124//79 123//78 
f 125//80 123//78 124//79 
f 124//79 126//80 125//80 
f 127//81 125//80 126//80 
f 126//80 128//82 127//81 
f 129//83 127//81 128//82 
f 128//82 130//83 129//83 
f 131//84 129//83 130//83 
f 130//83 132//84 131//84 
f 133//85 131//84 132//84 
f 132//84 134//85 133//85 
f 135//86 133//85 134//85 
f 134//85 136//86 135//86 
f 137//87 135//86 136//86 
f 136//86 138//88 137//87 
f 139//89 137//87 138//88 
f 138//88 140//89 139//89 
f 141//90 139//89 140//89 
f 140//89 142//91 141//90 
f 143//92 141//90 142//91 
f 142//91 144//92 143//92 
f 145//93 143//92 144//92 
f 144//92 146//93 145//93 
f 147//94 145//93 146//93 
f 146//93 148//94 147//94 
f 149//95 147//94 148//94 
f 148//94 150//95 149//95 
f 151//96 149//95 150//95 
f 150//95 152//97 151//96 
s 3
f 98//63 151//96 152//97 
f 152//97 99//63 98//63 
s 16
f 132//98 130//98 128//98 
f 132//98 128//98 126//98 
f 132//98 126//98 124//98 
f 132//98 124//98 122//98 
f 132//98 122//98 120//98 
f 132//98 120//98 118//98 
f 132//98 118//98 116//98 
f 132//98 116//98 114//98 
f 132//98 114//98 112//98 
f 132//98 112//98 110//98 
f 132//98 110//98 108//98 
f 132//98 108//98 106//98 
f 132//98 106//98 104//98 
f 132//98 104//98 102//98 
f 132//98 102//98 100//98 
f 132//98 100//98 99//98 
f 132//98 99//98 152//98 
f 132//98 152//98 150//98 
f 132//98 150//98 148//98 
f 132//98 148//98 146//98 
f 134//98 132//98 146//98 
f 136//98 134//98 146//98 
f 136//98 146//98 144//98 
f 136//98 144//98 142//98 
f 138//98 136//98 142//98 
f 138//98 142//98 140//98 
f 137//99 139//99 141//99 
f 127//99 129//100 131//99 
f 125//99 127//99 131//99 
f 123//99 125//99 131//99 
f 121//101 123//99 131//99 
f 119//99 121//101 131//99 
f 117//99 119//99 131//99 
f 115//99 117//99 131//99 
f 113//99 115//99 131//99 
f 111//101 113//99 131//99 
f 109//101 111//101 131//99 
f 107//101 109//101 131//99 
f 105//101 107//101 131//99 
f 103//99 105//101 131//99 
f 101//99 103//99 131//99 
f 97//101 101//99 131//99 
f 98//101 97//101 131//99 
f 151//101 98//101 131//99 
f 149//101 151//101 131//99 
f 147//99 149//101 131//99 
f 145//100 147//99 131//99 
f 145//100 131//99 133//102 
f 145//100 133//102 135//102 
f 143//100 145//100 135//102 
f 141//99 143//100 135//102 
f 137//99 141//99 135//102 
# 108 faces

#
# object Circle002
#

v  198.7291 -72.7405 18.6948
v  198.8282 -73.5993 18.6948
v  200.3903 -73.5993 14.3696
v  200.2499 -72.3825 14.3696
v  198.4469 -71.9518 18.6948
v  199.8501 -71.2651 14.3696
v  198.0042 -71.2558 18.6948
v  199.2229 -70.2791 14.3696
v  197.4235 -70.6752 18.6948
v  198.4002 -69.4565 14.3696
v  196.7276 -70.2325 18.6948
v  197.4142 -68.8293 14.3696
v  195.9389 -69.9502 18.6948
v  196.2968 -68.4294 14.3696
v  195.0801 -69.8512 18.6948
v  195.0801 -68.2891 14.3696
v  194.2213 -69.9502 18.6948
v  193.8633 -68.4294 14.3696
v  193.4326 -70.2325 18.6948
v  192.7459 -68.8293 14.3696
v  192.7366 -70.6752 18.6948
v  191.7599 -69.4565 14.3696
v  192.1560 -71.2558 18.6948
v  190.9373 -70.2791 14.3696
v  191.7133 -71.9518 18.6948
v  190.3101 -71.2651 14.3696
v  191.4311 -72.7405 18.6948
v  189.9102 -72.3825 14.3696
v  191.3320 -73.5993 18.6948
v  189.7699 -73.5993 14.3696
v  191.4311 -74.4581 18.6948
v  189.9102 -74.8160 14.3696
v  191.7133 -75.2468 18.6948
v  190.3101 -75.9334 14.3696
v  192.1560 -75.9427 18.6948
v  190.9373 -76.9194 14.3696
v  192.7366 -76.5234 18.6948
v  191.7599 -77.7421 14.3696
v  193.4326 -76.9661 18.6948
v  192.7459 -78.3693 14.3696
v  194.2213 -77.2483 18.6948
v  193.8633 -78.7691 14.3696
v  195.0801 -77.3474 18.6948
v  195.0801 -78.9095 14.3696
v  195.9389 -77.2483 18.6948
v  196.2968 -78.7691 14.3696
v  196.7276 -76.9661 18.6948
v  197.4142 -78.3693 14.3696
v  197.4236 -76.5234 18.6948
v  198.4002 -77.7421 14.3696
v  198.0042 -75.9427 18.6948
v  199.2229 -76.9194 14.3696
v  198.4469 -75.2468 18.6948
v  199.8501 -75.9334 14.3696
v  198.7291 -74.4581 18.6948
v  200.2499 -74.8160 14.3696
# 56 vertices

vn 0.9159 0.2137 0.3397
vn 0.9405 -0.0000 0.3397
vn 0.9159 0.2138 0.3397
vn 0.8448 0.4134 0.3397
vn 0.7337 0.5885 0.3396
vn 0.5885 0.7337 0.3396
vn 0.4134 0.8448 0.3397
vn 0.2137 0.9159 0.3397
vn 0.2138 0.9159 0.3397
vn 0.0000 0.9405 0.3397
vn -0.2137 0.9159 0.3397
vn -0.2138 0.9159 0.3397
vn -0.4134 0.8448 0.3397
vn -0.5885 0.7337 0.3396
vn -0.7337 0.5885 0.3396
vn -0.8448 0.4134 0.3397
vn -0.9159 0.2137 0.3397
vn -0.9159 0.2138 0.3397
vn -0.9405 -0.0000 0.3397
vn -0.9159 -0.2137 0.3397
vn -0.9159 -0.2138 0.3397
vn -0.8448 -0.4134 0.3397
vn -0.7337 -0.5885 0.3396
vn -0.5885 -0.7337 0.3396
vn -0.4134 -0.8448 0.3397
vn -0.2137 -0.9159 0.3397
vn -0.2138 -0.9159 0.3397
vn -0.0000 -0.9405 0.3397
vn 0.2137 -0.9159 0.3397
vn 0.2138 -0.9159 0.3397
vn 0.4134 -0.8448 0.3397
vn 0.5885 -0.7337 0.3396
vn 0.7337 -0.5885 0.3396
vn 0.8448 -0.4134 0.3397
vn 0.9159 -0.2137 0.3397
vn 0.9159 -0.2138 0.3397
vn 0.0000 0.0000 -1.0000
vn 0.0000 -0.0000 1.0000
vn 0.0000 0.0000 1.0000
vn -0.0000 -0.0000 1.0000
vn -0.0000 0.0000 1.0000
# 41 vertex normals

o Circle002
g Circle002
usemtl 不锈钢
s 1
f 153//103 154//104 155//104 
f 155//104 156//105 153//103 
s 3
f 157//106 153//103 156//105 
f 156//105 158//106 157//106 
s 2
f 159//107 157//106 158//106 
f 158//106 160//107 159//107 
f 161//108 159//107 160//107 
f 160//107 162//108 161//108 
f 163//109 161//108 162//108 
f 162//108 164//109 163//109 
f 165//110 163//109 164//109 
f 164//109 166//111 165//110 
f 167//112 165//110 166//111 
f 166//111 168//112 167//112 
f 169//113 167//112 168//112 
f 168//112 170//114 169//113 
f 171//115 169//113 170//114 
f 170//114 172//115 171//115 
f 173//116 171//115 172//115 
f 172//115 174//116 173//116 
f 175//117 173//116 174//116 
f 174//116 176//117 175//117 
f 177//118 175//117 176//117 
f 176//117 178//118 177//118 
f 179//119 177//118 178//118 
f 178//118 180//120 179//119 
f 181//121 179//119 180//120 
f 180//120 182//121 181//121 
f 183//122 181//121 182//121 
f 182//121 184//123 183//122 
f 185//124 183//122 184//123 
f 184//123 186//124 185//124 
f 187//125 185//124 186//124 
f 186//124 188//125 187//125 
f 189//126 187//125 188//125 
f 188//125 190//126 189//126 
f 191//127 189//126 190//126 
f 190//126 192//127 191//127 
f 193//128 191//127 192//127 
f 192//127 194//129 193//128 
f 195//130 193//128 194//129 
f 194//129 196//130 195//130 
f 197//131 195//130 196//130 
f 196//130 198//132 197//131 
f 199//133 197//131 198//132 
f 198//132 200//133 199//133 
f 201//134 199//133 200//133 
f 200//133 202//134 201//134 
f 203//135 201//134 202//134 
f 202//134 204//135 203//135 
f 205//136 203//135 204//135 
f 204//135 206//136 205//136 
f 207//137 205//136 206//136 
f 206//136 208//138 207//137 
s 3
f 154//104 207//137 208//138 
f 208//138 155//104 154//104 
s 16
f 188//139 186//139 184//139 
f 188//139 184//139 182//139 
f 188//139 182//139 180//139 
f 188//139 180//139 178//139 
f 188//139 178//139 176//139 
f 188//139 176//139 174//139 
f 188//139 174//139 172//139 
f 188//139 172//139 170//139 
f 188//139 170//139 168//139 
f 188//139 168//139 166//139 
f 188//139 166//139 164//139 
f 188//139 164//139 162//139 
f 188//139 162//139 160//139 
f 188//139 160//139 158//139 
f 188//139 158//139 156//139 
f 188//139 156//139 155//139 
f 188//139 155//139 208//139 
f 188//139 208//139 206//139 
f 188//139 206//139 204//139 
f 188//139 204//139 202//139 
f 190//139 188//139 202//139 
f 192//139 190//139 202//139 
f 192//139 202//139 200//139 
f 192//139 200//139 198//139 
f 194//139 192//139 198//139 
f 194//139 198//139 196//139 
f 193//140 195//140 197//140 
f 183//140 185//141 187//140 
f 181//140 183//140 187//140 
f 179//140 181//140 187//140 
f 177//142 179//140 187//140 
f 175//140 177//142 187//140 
f 173//140 175//140 187//140 
f 171//140 173//140 187//140 
f 169//140 171//140 187//140 
f 167//142 169//140 187//140 
f 165//142 167//142 187//140 
f 163//142 165//142 187//140 
f 161//142 163//142 187//140 
f 159//140 161//142 187//140 
f 157//140 159//140 187//140 
f 153//142 157//140 187//140 
f 154//142 153//142 187//140 
f 207//142 154//142 187//140 
f 205//142 207//142 187//140 
f 203//140 205//142 187//140 
f 201//141 203//140 187//140 
f 201//141 187//140 189//143 
f 201//141 189//143 191//143 
f 199//141 201//141 191//143 
f 197//140 199//141 191//143 
f 193//140 197//140 191//143 
# 108 faces

