# 3ds Max Wavefront OBJ Exporter v0.97b - (c)2007 guruware
# 创建的文件:05.07.2019 12:09:51

mtllib camera.mtl

#
# object Rectangle003
#

v  35.0216 39.1399 -71.1633
v  -34.9784 39.1399 -71.1633
v  -34.9784 39.1399 -63.1633
v  35.0216 39.1399 -63.1633
v  -34.9784 -40.8601 -71.1633
v  -34.9784 -40.8601 -63.1633
v  35.0216 -40.8601 -71.1633
v  35.0216 -40.8601 -63.1633
# 8 vertices

vn -0.0000 1.0000 0.0000
vn -1.0000 0.0000 -0.0000
vn 0.0000 -1.0000 -0.0000
vn 1.0000 0.0000 0.0000
vn 0.0000 0.0000 -1.0000
vn -0.0000 -0.0000 1.0000
# 6 vertex normals

o Rectangle003
g Rectangle003
usemtl wire_212212212
s 1
f 1//1 2//1 3//1 
f 1//1 3//1 4//1 
s 4
f 2//2 5//2 6//2 
f 2//2 6//2 3//2 
s 2
f 5//3 7//3 8//3 
f 5//3 8//3 6//3 
s 4
f 7//4 1//4 4//4 
f 7//4 4//4 8//4 
s 16
f 5//5 1//5 7//5 
f 2//5 1//5 5//5 
f 6//6 8//6 4//6 
f 3//6 6//6 4//6 
# 12 faces

#
# object Rectangle001
#

v  20.0216 100.0557 -14.7239
v  19.9159 100.9046 -14.3783
v  19.9159 40.5863 133.8165
v  20.0216 39.7374 133.4709
v  19.6147 101.6842 -14.0610
v  19.6147 41.3659 134.1338
v  19.1423 102.3721 -13.7810
v  19.1422 42.0538 134.4138
v  18.5226 102.9460 -13.5474
v  18.5226 42.6278 134.6474
v  17.7799 103.3836 -13.3693
v  17.7799 43.0654 134.8255
v  16.9382 103.6626 -13.2558
v  16.9382 43.3443 134.9391
v  16.0216 103.7605 -13.2159
v  16.0216 43.4423 134.9789
v  -15.9784 103.7605 -13.2159
v  -15.9784 43.4423 134.9789
v  -16.8949 103.6626 -13.2558
v  -16.8949 43.3443 134.9391
v  -17.7366 103.3837 -13.3693
v  -17.7366 43.0654 134.8255
v  -18.4793 102.9460 -13.5474
v  -18.4793 42.6278 134.6474
v  -19.0990 102.3721 -13.7810
v  -19.0990 42.0538 134.4138
v  -19.5714 101.6842 -14.0610
v  -19.5715 41.3659 134.1338
v  -19.8726 100.9046 -14.3784
v  -19.8726 40.5863 133.8165
v  -19.9784 100.0557 -14.7239
v  -19.9784 39.7374 133.4709
v  -19.9784 70.4167 -26.7875
v  -19.9784 10.0984 121.4073
v  -19.8726 69.5678 -27.1331
v  -19.8726 9.2495 121.0618
v  -19.5714 68.7882 -27.4504
v  -19.5715 8.4699 120.7445
v  -19.0990 68.1003 -27.7304
v  -19.0990 7.7820 120.4645
v  -18.4793 67.5263 -27.9640
v  -18.4793 7.2081 120.2309
v  -17.7366 67.0887 -28.1421
v  -17.7366 6.7705 120.0527
v  -16.8949 66.8098 -28.2556
v  -16.8949 6.4915 119.9392
v  -15.9784 66.7118 -28.2955
v  -15.9784 6.3936 119.8993
v  16.0216 66.7118 -28.2955
v  16.0216 6.3936 119.8993
v  16.9382 66.8098 -28.2556
v  16.9382 6.4915 119.9392
v  17.7799 67.0887 -28.1421
v  17.7799 6.7705 120.0527
v  18.5226 67.5263 -27.9640
v  18.5226 7.2081 120.2309
v  19.1423 68.1003 -27.7304
v  19.1422 7.7820 120.4645
v  19.6147 68.7882 -27.4504
v  19.6147 8.4699 120.7445
v  19.9159 69.5678 -27.1330
v  19.9159 9.2495 121.0618
v  20.0216 70.4167 -26.7875
v  20.0216 10.0984 121.4073
# 64 vertices

vn 0.9934 0.1062 0.0432
vn 0.9738 0.2105 0.0857
vn 0.8982 0.4071 0.1657
vn 0.7801 0.5795 0.2359
vn 0.6257 0.7225 0.2941
vn 0.4395 0.8319 0.3386
vn 0.2272 0.9020 0.3671
vn 0.1146 0.9201 0.3745
vn -0.0000 0.9262 0.3770
vn -0.1146 0.9201 0.3745
vn -0.2272 0.9020 0.3671
vn -0.4395 0.8319 0.3386
vn -0.6257 0.7225 0.2941
vn -0.7801 0.5795 0.2359
vn -0.8982 0.4071 0.1657
vn -0.9738 0.2105 0.0857
vn -0.9934 0.1062 0.0432
vn -1.0000 0.0000 -0.0000
vn -0.9934 -0.1062 -0.0432
vn -0.9738 -0.2105 -0.0857
vn -0.8982 -0.4071 -0.1657
vn -0.7801 -0.5795 -0.2359
vn -0.6257 -0.7225 -0.2941
vn -0.4395 -0.8319 -0.3386
vn -0.2272 -0.9020 -0.3671
vn -0.1146 -0.9201 -0.3745
vn 0.0000 -0.9262 -0.3770
vn 0.1146 -0.9201 -0.3745
vn 0.2272 -0.9020 -0.3671
vn 0.4395 -0.8319 -0.3386
vn 0.6257 -0.7225 -0.2941
vn 0.7801 -0.5795 -0.2359
vn 0.8982 -0.4071 -0.1657
vn 0.9738 -0.2105 -0.0857
vn 0.9934 -0.1062 -0.0432
vn 1.0000 -0.0000 0.0000
vn 0.0000 0.3770 -0.9262
vn -0.0000 -0.3770 0.9262
# 38 vertex normals

o Rectangle001
g Rectangle001
usemtl wire_212212212
s 1
f 9//7 10//8 11//8 
f 9//7 11//8 12//7 
s 3
f 10//8 13//9 14//9 
f 10//8 14//9 11//8 
s 2
f 13//9 15//10 16//10 
f 13//9 16//10 14//9 
f 15//10 17//11 18//11 
f 15//10 18//11 16//10 
f 17//11 19//12 20//12 
f 17//11 20//12 18//11 
f 19//12 21//13 22//13 
f 19//12 22//13 20//12 
f 21//13 23//14 24//14 
f 21//13 24//14 22//13 
s 4
f 23//15 25//15 26//15 
f 23//15 26//15 24//15 
s 2
f 25//16 27//17 28//17 
f 25//16 28//17 26//16 
f 27//17 29//18 30//18 
f 27//17 30//18 28//17 
f 29//18 31//19 32//19 
f 29//18 32//19 30//18 
f 31//19 33//20 34//20 
f 31//19 34//20 32//19 
f 33//20 35//21 36//21 
f 33//20 36//21 34//20 
f 35//21 37//22 38//22 
f 35//21 38//22 36//21 
f 37//22 39//23 40//23 
f 37//22 40//23 38//22 
s 4
f 39//24 41//24 42//24 
f 39//24 42//24 40//24 
s 2
f 41//25 43//26 44//26 
f 41//25 44//26 42//25 
f 43//26 45//27 46//27 
f 43//26 46//27 44//26 
f 45//27 47//28 48//28 
f 45//27 48//28 46//27 
f 47//28 49//29 50//29 
f 47//28 50//29 48//28 
f 49//29 51//30 52//30 
f 49//29 52//30 50//29 
f 51//30 53//31 54//31 
f 51//30 54//31 52//30 
f 53//31 55//32 56//32 
f 53//31 56//32 54//31 
s 4
f 55//33 57//33 58//33 
f 55//33 58//33 56//33 
s 2
f 57//34 59//35 60//35 
f 57//34 60//35 58//34 
f 59//35 61//36 62//36 
f 59//35 62//36 60//35 
f 61//36 63//37 64//37 
f 61//36 64//37 62//36 
f 63//37 65//38 66//38 
f 63//37 66//38 64//37 
f 65//38 67//39 68//39 
f 65//38 68//39 66//38 
f 67//39 69//40 70//40 
f 67//39 70//40 68//39 
f 69//40 71//41 72//41 
f 69//40 72//41 70//40 
s 4
f 71//42 9//42 12//42 
f 71//42 12//42 72//42 
s 16
f 57//43 61//43 59//43 
f 57//43 63//43 61//43 
f 57//43 65//43 63//43 
f 57//43 67//43 65//43 
f 57//43 69//43 67//43 
f 57//43 71//43 69//43 
f 55//43 71//43 57//43 
f 55//43 9//43 71//43 
f 53//43 9//43 55//43 
f 51//43 9//43 53//43 
f 49//43 9//43 51//43 
f 47//43 9//43 49//43 
f 45//43 9//43 47//43 
f 43//43 9//43 45//43 
f 41//43 9//43 43//43 
f 39//43 9//43 41//43 
f 37//43 9//43 39//43 
f 35//43 9//43 37//43 
f 33//43 9//43 35//43 
f 31//43 9//43 33//43 
f 29//43 9//43 31//43 
f 27//43 9//43 29//43 
f 25//43 9//43 27//43 
f 23//43 9//43 25//43 
f 21//43 9//43 23//43 
f 21//43 10//43 9//43 
f 19//43 10//43 21//43 
f 19//43 13//43 10//43 
f 17//43 13//43 19//43 
f 17//43 15//43 13//43 
f 58//44 60//44 62//44 
f 58//44 62//44 64//44 
f 58//44 64//44 66//44 
f 58//44 66//44 68//44 
f 58//44 68//44 70//44 
f 58//44 70//44 72//44 
f 56//44 58//44 72//44 
f 56//44 72//44 12//44 
f 54//44 56//44 12//44 
f 52//44 54//44 12//44 
f 50//44 52//44 12//44 
f 48//44 50//44 12//44 
f 46//44 48//44 12//44 
f 44//44 46//44 12//44 
f 42//44 44//44 12//44 
f 40//44 42//44 12//44 
f 38//44 40//44 12//44 
f 36//44 38//44 12//44 
f 34//44 36//44 12//44 
f 32//44 34//44 12//44 
f 30//44 32//44 12//44 
f 28//44 30//44 12//44 
f 26//44 28//44 12//44 
f 24//44 26//44 12//44 
f 22//44 24//44 12//44 
f 22//44 12//44 11//44 
f 20//44 22//44 11//44 
f 20//44 11//44 14//44 
f 18//44 20//44 14//44 
f 18//44 14//44 16//44 
# 124 faces

#
# object Rectangle002
#

v  -5.3147 53.3616 31.9381
v  -5.3147 -0.9264 31.9381
v  4.6853 -0.9264 31.9381
v  4.6853 53.3616 31.9381
v  -5.3147 -2.1488 31.8194
v  4.6853 -2.1488 31.8194
v  -5.3147 -3.5494 31.4941
v  4.6853 -3.5494 31.4941
v  -5.3147 -4.9946 30.8990
v  4.6853 -4.9946 30.8990
v  -5.3147 -6.3509 29.9711
v  4.6853 -6.3509 29.9711
v  -5.3147 -7.4850 28.6475
v  4.6853 -7.4850 28.6475
v  -5.3147 -8.2633 26.8650
v  4.6853 -8.2633 26.8650
v  -5.3147 -8.5524 24.5608
v  4.6853 -8.5524 24.5608
v  -5.3147 -8.5524 -68.7832
v  4.6853 -8.5524 -68.7832
v  -5.3147 0.4476 -68.7832
v  4.6853 0.4476 -68.7832
v  -5.3147 0.4476 17.0665
v  4.6853 0.4476 17.0665
v  -5.3147 0.5541 18.9053
v  4.6853 0.5541 18.9053
v  -5.3147 0.8786 20.3174
v  4.6853 0.8786 20.3174
v  -5.3147 1.4286 21.3589
v  4.6853 1.4286 21.3589
v  -5.3147 2.2117 22.0858
v  4.6853 2.2117 22.0858
v  -5.3147 3.2354 22.5539
v  4.6853 3.2354 22.5539
v  -5.3147 4.5072 22.8194
v  4.6853 4.5072 22.8194
v  -5.3147 6.0347 22.9381
v  4.6853 6.0347 22.9381
v  -5.3147 53.3616 22.9381
v  4.6853 53.3616 22.9381
# 40 vertices

vn 0.0000 0.0000 1.0000
vn 0.0000 -0.0966 0.9953
vn 0.0000 -0.1618 0.9868
vn -0.0000 -0.3045 0.9525
vn -0.0000 -0.4753 0.8798
vn -0.0000 -0.6677 0.7444
vn -0.0000 -0.8472 0.5312
vn -0.0000 -0.9642 0.2650
vn -0.0000 -0.9922 0.1245
vn -0.0000 -1.0000 0.0000
vn -0.0000 0.0000 -1.0000
vn 0.0000 1.0000 -0.0000
vn 0.0000 0.9983 -0.0578
vn 0.0000 0.9900 -0.1414
vn 0.0000 0.9373 -0.3484
vn 0.0000 0.7935 -0.6086
vn 0.0000 0.5552 -0.8317
vn 0.0000 0.3120 -0.9501
vn -0.0000 0.1412 -0.9900
vn -0.0000 0.0775 -0.9970
vn -1.0000 0.0000 0.0000
vn -1.0000 -0.0000 0.0000
vn -1.0000 0.0000 -0.0000
vn -1.0000 -0.0000 -0.0000
vn 1.0000 -0.0000 -0.0000
vn 1.0000 0.0000 0.0000
vn 1.0000 -0.0000 0.0000
# 27 vertex normals

o Rectangle002
g Rectangle002
usemtl wire_212212212
s 1
f 73//45 74//45 75//45 
f 73//45 75//45 76//45 
s 4
f 74//46 77//47 78//47 
f 74//46 78//47 75//46 
f 77//47 79//48 80//48 
f 77//47 80//48 78//47 
f 79//48 81//49 82//49 
f 79//48 82//49 80//48 
f 81//49 83//50 84//50 
f 81//49 84//50 82//49 
f 83//50 85//51 86//51 
f 83//50 86//51 84//50 
f 85//51 87//52 88//52 
f 85//51 88//52 86//51 
f 87//52 89//53 90//53 
f 87//52 90//53 88//52 
s 2
f 89//54 91//54 92//54 
f 89//54 92//54 90//54 
s 4
f 91//55 93//55 94//55 
f 91//55 94//55 92//55 
s 2
f 93//56 95//56 96//56 
f 93//56 96//56 94//56 
s 4
f 95//57 97//58 98//58 
f 95//57 98//58 96//57 
f 97//58 99//59 100//59 
f 97//58 100//59 98//58 
f 99//59 101//60 102//60 
f 99//59 102//60 100//59 
f 101//60 103//61 104//61 
f 101//60 104//61 102//60 
f 103//61 105//62 106//62 
f 103//61 106//62 104//61 
f 105//62 107//63 108//63 
f 105//62 108//63 106//62 
f 107//63 109//64 110//64 
f 107//63 110//64 108//63 
s 2
f 109//55 111//55 112//55 
f 109//55 112//55 110//55 
s 4
f 111//56 73//56 76//56 
f 111//56 76//56 112//56 
s 16
f 109//65 73//65 111//65 
f 109//65 74//65 73//65 
f 107//65 74//65 109//65 
f 105//66 74//65 107//65 
f 91//65 95//65 93//65 
f 89//65 95//65 91//65 
f 89//65 97//65 95//65 
f 89//65 99//67 97//65 
f 103//68 74//65 105//66 
f 89//65 101//67 99//67 
f 87//65 101//67 89//65 
f 85//65 101//67 87//65 
f 83//65 101//67 85//65 
f 81//65 101//67 83//65 
f 79//65 101//67 81//65 
f 79//65 103//68 101//67 
f 79//65 74//65 103//68 
f 77//67 74//65 79//65 
f 110//69 112//69 76//69 
f 110//69 76//69 75//69 
f 108//70 110//69 75//69 
f 106//69 108//70 75//69 
f 92//69 94//69 96//69 
f 90//69 92//69 96//69 
f 90//69 96//69 98//71 
f 90//69 98//71 100//70 
f 104//69 106//69 75//69 
f 90//69 100//70 102//69 
f 88//70 90//69 102//69 
f 86//71 88//70 102//69 
f 84//69 86//71 102//69 
f 82//69 84//69 102//69 
f 80//69 82//69 102//69 
f 80//69 102//69 104//69 
f 80//69 104//69 75//69 
f 78//69 80//69 75//69 
# 76 faces

